<svg xmlns="http://www.w3.org/2000/svg" xmlns:xlink="http://www.w3.org/1999/xlink" width="1920" zoomAndPan="magnify" viewBox="0 0 1440 809.999993" height="1080" preserveAspectRatio="xMidYMid meet" version="1.0"><defs><clipPath id="cf28547d97"><path d="M 306.183594 247 L 773 247 L 773 353 L 306.183594 353 Z M 306.183594 247 " clip-rule="nonzero"/></clipPath><clipPath id="9fdc0e8b1c"><path d="M 772 253 L 1134.183594 253 L 1134.183594 354 L 772 354 Z M 772 253 " clip-rule="nonzero"/></clipPath><clipPath id="ae5712fd18"><path d="M 380 352 L 666 352 L 666 783 L 380 783 Z M 380 352 " clip-rule="nonzero"/></clipPath><clipPath id="f141aaed04"><path d="M 665 353 L 1058 353 L 1058 783 L 665 783 Z M 665 353 " clip-rule="nonzero"/></clipPath></defs><rect x="-144" width="1728" fill="#ffffff" y="-80.999999" height="971.999992" fill-opacity="1"/><rect x="-144" width="1728" fill="#ffffff" y="-80.999999" height="971.999992" fill-opacity="1"/><path fill="#bf762e" d="M 380.828125 352.5625 L 772.425781 255.015625 L 772.425781 589.421875 L 380.828125 672.445312 L 380.828125 352.5625 " fill-opacity="1" fill-rule="nonzero"/><path fill="#c98132" d="M 1057.554688 353.308594 L 772.429688 255.019531 L 772.429688 589.421875 L 1057.554688 672.445312 L 1057.554688 353.308594 " fill-opacity="1" fill-rule="nonzero"/><g clip-path="url(#cf28547d97)"><path fill="#ce9756" d="M 380.828125 352.5625 L 306.386719 339.554688 L 653.550781 247.578125 L 772.425781 255.015625 L 380.828125 352.5625 " fill-opacity="1" fill-rule="nonzero"/></g><g clip-path="url(#9fdc0e8b1c)"><path fill="#e4a252" d="M 772.429688 255.015625 L 876.636719 253.875 L 1134.03125 342.257812 L 1057.558594 353.304688 L 772.429688 255.015625 " fill-opacity="1" fill-rule="nonzero"/></g><path fill="#843317" d="M 706.257812 194.679688 C 706.257812 194.679688 652.167969 211.839844 616.699219 261.625 C 581.222656 311.402344 601.339844 333.945312 604.210938 337.375 C 607.078125 340.804688 638.664062 377.535156 687.378906 276.550781 C 736.09375 175.566406 706.257812 194.679688 706.257812 194.679688 " fill-opacity="1" fill-rule="nonzero"/><path fill="#6d2411" d="M 708.980469 193.496094 C 707.117188 204.902344 699.910156 225.890625 681.585938 263.878906 C 632.875 364.863281 601.289062 328.132812 598.417969 324.707031 C 598.113281 324.34375 597.613281 323.753906 597.003906 322.945312 C 598.957031 331.34375 603.035156 335.972656 604.210938 337.375 C 607.078125 340.804688 638.664062 377.535156 687.378906 276.550781 C 726.324219 195.816406 715.066406 191.847656 708.980469 193.496094 " fill-opacity="1" fill-rule="nonzero"/><path fill="#843317" d="M 823.101562 204.902344 C 823.101562 204.902344 873.378906 231.203125 899.652344 286.390625 C 925.925781 341.574219 902.195312 360.28125 898.773438 363.15625 C 895.351562 366.03125 857.855469 396.71875 827.453125 288.808594 C 797.046875 180.90625 823.101562 204.902344 823.101562 204.902344 " fill-opacity="1" fill-rule="nonzero"/><path fill="#6d2411" d="M 899.652344 286.390625 C 888.027344 261.96875 871.703125 243.210938 857.117188 229.878906 C 867.691406 241.53125 878.1875 255.902344 886.359375 273.066406 C 912.628906 328.25 888.898438 346.953125 885.476562 349.832031 C 883.53125 351.464844 870.613281 362.042969 854.238281 351.164062 C 876.46875 381.46875 896.328125 365.214844 898.773438 363.15625 C 902.195312 360.28125 925.925781 341.574219 899.652344 286.390625 " fill-opacity="1" fill-rule="nonzero"/><path fill="#893f1f" d="M 851.449219 325.765625 C 845.984375 265.203125 822.199219 219.472656 822.199219 219.472656 L 761.773438 214.183594 L 761.324219 214.144531 L 700.898438 208.855469 C 700.898438 208.855469 669.519531 249.753906 653.601562 308.449219 C 637.707031 367.035156 655.089844 415.542969 742.988281 423.398438 L 742.988281 423.402344 C 743.066406 423.40625 743.136719 423.410156 743.210938 423.421875 C 743.285156 423.425781 743.359375 423.4375 743.429688 423.441406 L 743.429688 423.4375 C 831.359375 430.972656 856.914062 386.226562 851.449219 325.765625 " fill-opacity="1" fill-rule="nonzero"/><path fill="#772c12" d="M 851.449219 325.765625 C 845.984375 265.203125 822.199219 219.472656 822.199219 219.472656 L 820.023438 219.28125 C 826.648438 238.28125 833.945312 264.820312 836.671875 295.0625 C 842.132812 355.519531 816.582031 400.273438 728.65625 392.734375 L 728.65625 392.742188 C 728.578125 392.730469 728.507812 392.71875 728.429688 392.71875 C 728.359375 392.710938 728.285156 392.707031 728.210938 392.699219 C 689.484375 389.234375 664.457031 377.878906 649.917969 361.253906 C 656.421875 394.238281 683.613281 418.09375 742.988281 423.398438 L 742.988281 423.402344 C 743.066406 423.40625 743.136719 423.410156 743.210938 423.421875 C 743.285156 423.425781 743.359375 423.4375 743.429688 423.441406 L 743.429688 423.4375 C 831.359375 430.972656 856.914062 386.226562 851.449219 325.765625 " fill-opacity="1" fill-rule="nonzero"/><path fill="#893f1f" d="M 683.792969 113.511719 C 683.792969 113.511719 619.804688 63.117188 668.195312 34.210938 C 725.46875 -0.00390625 732.632812 87.019531 732.632812 87.019531 L 683.792969 113.511719 " fill-opacity="1" fill-rule="nonzero"/><path fill="#d38d5e" d="M 822.742188 303.316406 C 819.265625 257.886719 803.023438 223.691406 803.023438 223.691406 L 761.191406 220.023438 L 760.882812 220 L 719.050781 216.335938 C 719.050781 216.335938 697.105469 247.195312 685.777344 291.328125 C 674.46875 335.382812 686.261719 371.703125 747.113281 377.148438 C 747.160156 377.15625 747.214844 377.160156 747.265625 377.164062 C 747.3125 377.167969 747.367188 377.175781 747.417969 377.179688 L 747.417969 377.175781 C 808.285156 382.382812 826.21875 348.664062 822.742188 303.316406 " fill-opacity="1" fill-rule="nonzero"/><path fill="#893f1f" d="M 861.652344 129.078125 C 861.652344 129.078125 933.433594 90.570312 890.808594 53.695312 C 840.351562 10.050781 818.167969 94.511719 818.167969 94.511719 L 861.652344 129.078125 " fill-opacity="1" fill-rule="nonzero"/><path fill="#d38d5e" d="M 671.816406 87.5 C 679.660156 68.871094 696.789062 59.113281 713.753906 54.171875 C 707.460938 40.082031 695.472656 28.101562 672.976562 41.542969 C 650.453125 55 661.011719 74.777344 671.816406 87.5 " fill-opacity="1" fill-rule="nonzero"/><path fill="#d38d5e" d="M 877.96875 105.542969 C 873.484375 85.835938 858.320312 73.253906 842.46875 65.4375 C 851.117188 52.65625 865.007812 42.945312 884.824219 60.082031 C 904.667969 77.25 890.824219 94.894531 877.96875 105.542969 " fill-opacity="1" fill-rule="nonzero"/><path fill="#893f1f" d="M 883.3125 131.664062 C 883.027344 64.640625 812.472656 48.210938 779.375 45.316406 C 747.085938 42.488281 673.945312 46.339844 662.007812 112.289062 C 650.070312 178.242188 682.511719 229.617188 762.617188 236.628906 C 842.71875 243.644531 883.597656 198.683594 883.3125 131.664062 " fill-opacity="1" fill-rule="nonzero"/><path fill="#955336" d="M 697.378906 103.113281 C 693.007812 103.113281 689.664062 101.070312 687.414062 96.355469 C 681.738281 84.464844 697.457031 71.929688 704.96875 67.078125 C 710.136719 63.742188 719.8125 58.566406 728.195312 58.566406 C 732.296875 58.566406 736.09375 59.808594 738.886719 63.109375 C 747.410156 73.171875 742.960938 79.085938 724.324219 91.121094 C 713.082031 98.378906 704.035156 103.113281 697.378906 103.113281 " fill-opacity="1" fill-rule="nonzero"/><path fill="#772c12" d="M 883.316406 131.65625 C 883.226562 110.316406 876.007812 94.117188 865.144531 81.839844 C 872.820312 93.074219 877.652344 107.070312 877.722656 124.488281 C 878.011719 191.507812 837.128906 236.46875 757.023438 229.457031 C 719.828125 226.203125 692.925781 213.367188 675.957031 193.964844 C 692.308594 217.363281 721.015625 232.984375 762.617188 236.625 C 842.722656 243.636719 883.601562 198.679688 883.316406 131.65625 " fill-opacity="1" fill-rule="nonzero"/><path fill="#16100a" d="M 740.410156 133.152344 C 739.910156 138.863281 734.867188 143.089844 729.152344 142.589844 C 723.4375 142.089844 719.210938 137.058594 719.710938 131.34375 C 720.214844 125.628906 725.25 121.402344 730.96875 121.902344 C 736.683594 122.402344 740.910156 127.441406 740.410156 133.152344 " fill-opacity="1" fill-rule="nonzero"/><path fill="#ffffff" d="M 729.117188 127.15625 C 728.953125 129.035156 727.285156 130.429688 725.40625 130.265625 C 723.523438 130.097656 722.125 128.4375 722.289062 126.558594 C 722.460938 124.675781 724.117188 123.285156 726 123.445312 C 727.886719 123.613281 729.277344 125.273438 729.117188 127.15625 " fill-opacity="1" fill-rule="nonzero"/><path fill="#16100a" d="M 816.511719 139.8125 C 816.011719 145.523438 810.96875 149.753906 805.253906 149.253906 C 799.539062 148.753906 795.308594 143.714844 795.808594 138.003906 C 796.308594 132.292969 801.347656 128.0625 807.066406 128.5625 C 812.78125 129.0625 817.011719 134.105469 816.511719 139.8125 " fill-opacity="1" fill-rule="nonzero"/><path fill="#ffffff" d="M 805.210938 133.816406 C 805.046875 135.695312 803.386719 137.089844 801.507812 136.925781 C 799.621094 136.757812 798.230469 135.101562 798.394531 133.21875 C 798.558594 131.339844 800.21875 129.941406 802.105469 130.113281 C 803.984375 130.277344 805.378906 131.933594 805.210938 133.816406 " fill-opacity="1" fill-rule="nonzero"/><path fill="#d38d5e" d="M 819.351562 174.820312 C 818.664062 148.578125 778.457031 141.050781 768.234375 140.160156 C 758.015625 139.265625 717.117188 139.691406 711.875 165.410156 C 706.628906 191.132812 722.78125 211.519531 761.6875 214.921875 C 800.585938 218.328125 820.039062 201.058594 819.351562 174.820312 " fill-opacity="1" fill-rule="nonzero"/><path fill="#aa673a" d="M 765.988281 196.195312 L 760.707031 195.734375 L 763.535156 163.429688 L 768.820312 163.890625 L 765.988281 196.195312 " fill-opacity="1" fill-rule="nonzero"/><path fill="#aa673a" d="M 762.757812 198.5 C 742.03125 196.6875 729.039062 184.914062 728.84375 184.738281 C 727.769531 183.742188 727.710938 182.0625 728.707031 180.992188 C 729.703125 179.917969 731.375 179.855469 732.453125 180.851562 C 733.550781 181.863281 759.257812 204.933594 796.652344 186.304688 C 797.960938 185.648438 799.558594 186.179688 800.207031 187.492188 C 800.863281 188.804688 800.328125 190.398438 799.019531 191.046875 C 785.417969 197.824219 773.121094 199.410156 762.757812 198.5 " fill-opacity="1" fill-rule="nonzero"/><path fill="#351107" d="M 767.273438 151.136719 C 760.839844 150.574219 749.132812 152.65625 748.464844 160.277344 C 747.792969 167.898438 758.457031 175.417969 765.078125 176.183594 C 771.734375 176.582031 783.542969 171.03125 784.214844 163.410156 C 784.878906 155.789062 773.707031 151.699219 767.273438 151.136719 " fill-opacity="1" fill-rule="nonzero"/><path fill="#843317" d="M 757.046875 399.386719 C 743.785156 418.867188 734.902344 456.554688 782.351562 478.109375 C 829.800781 499.664062 894.542969 448.046875 879.015625 401.734375 C 863.480469 355.417969 793.128906 346.371094 757.046875 399.386719 " fill-opacity="1" fill-rule="nonzero"/><path fill="#6d2411" d="M 879.015625 401.734375 C 877.929688 398.507812 876.574219 395.472656 874.992188 392.617188 C 889.445312 446.519531 828.007812 496.421875 777.855469 471.140625 C 763.015625 463.664062 753.289062 451.933594 747.929688 442.894531 C 751.339844 455.808594 761.296875 468.546875 782.351562 478.109375 C 829.800781 499.664062 894.542969 448.046875 879.015625 401.734375 " fill-opacity="1" fill-rule="nonzero"/><path fill="#9b4e27" d="M 771.914062 405.597656 C 762.109375 419.992188 755.542969 447.84375 790.613281 463.773438 C 825.675781 479.703125 873.523438 441.554688 862.046875 407.332031 C 850.570312 373.101562 798.574219 366.414062 771.914062 405.597656 " fill-opacity="1" fill-rule="nonzero"/><path fill="#843317" d="M 737.570312 397.679688 C 747.238281 419.171875 749.429688 457.824219 698.957031 470.808594 C 648.480469 483.792969 593.699219 421.71875 617.050781 378.804688 C 640.402344 335.894531 711.253906 339.207031 737.570312 397.679688 " fill-opacity="1" fill-rule="nonzero"/><path fill="#6d2411" d="M 737.570312 397.679688 C 736.390625 395.070312 735.125 392.570312 733.78125 390.175781 C 742.601562 412.015625 742.507812 451.347656 696.101562 463.246094 C 665.394531 471.117188 631.246094 449.144531 615.910156 422.710938 C 628.257812 453.707031 664.597656 479.648438 698.957031 470.808594 C 749.429688 457.824219 747.238281 419.171875 737.570312 397.679688 " fill-opacity="1" fill-rule="nonzero"/><path fill="#9b4e27" d="M 721.847656 401.210938 C 729 417.09375 730.621094 445.664062 693.316406 455.257812 C 656.015625 464.851562 615.527344 418.972656 632.785156 387.261719 C 650.042969 355.546875 702.40625 358 721.847656 401.210938 " fill-opacity="1" fill-rule="nonzero"/><path fill="#9b481f" d="M 883.175781 405.042969 L 855.5625 396.257812 L 930.648438 160.585938 L 958.265625 169.375 L 883.175781 405.042969 " fill-opacity="1" fill-rule="nonzero"/><path fill="#9b481f" d="M 974.910156 422.355469 L 993.015625 175.875 L 1021.921875 177.996094 L 1003.816406 424.476562 L 974.910156 422.355469 " fill-opacity="1" fill-rule="nonzero"/><path fill="#fdd600" d="M 1034.375 204.097656 L 907.917969 180.109375 C 903.890625 179.347656 901.242188 175.460938 902.011719 171.433594 L 905.640625 152.308594 C 906.40625 148.28125 910.289062 145.640625 914.324219 146.402344 L 1040.773438 170.394531 C 1044.804688 171.15625 1047.453125 175.039062 1046.6875 179.066406 L 1043.054688 198.191406 C 1042.289062 202.222656 1038.402344 204.863281 1034.375 204.097656 " fill-opacity="1" fill-rule="nonzero"/><path fill="#f4c500" d="M 1029.773438 197.695312 C 1029.773438 197.695312 902.347656 173.46875 901.902344 173.289062 C 902.117188 176.589844 904.519531 179.460938 907.921875 180.101562 L 1034.378906 204.09375 C 1038.40625 204.859375 1042.292969 202.214844 1043.0625 198.1875 L 1046.691406 179.0625 C 1042.308594 198.144531 1033.800781 198.457031 1029.773438 197.695312 " fill-opacity="1" fill-rule="nonzero"/><path fill="#b9c6cd" d="M 949.453125 170.527344 C 948.683594 174.589844 944.761719 177.253906 940.699219 176.484375 C 936.632812 175.714844 933.964844 171.796875 934.738281 167.734375 C 935.507812 163.671875 939.429688 161.003906 943.492188 161.773438 C 947.558594 162.546875 950.226562 166.464844 949.453125 170.527344 " fill-opacity="1" fill-rule="nonzero"/><path fill="#a1b6bf" d="M 948.355469 165.027344 C 948.746094 166.199219 948.855469 167.488281 948.609375 168.789062 C 947.835938 172.851562 943.917969 175.519531 939.851562 174.75 C 937.773438 174.355469 936.066406 173.132812 934.992188 171.496094 C 935.824219 173.984375 937.9375 175.960938 940.699219 176.484375 C 944.761719 177.253906 948.683594 174.589844 949.453125 170.527344 C 949.832031 168.539062 949.378906 166.59375 948.355469 165.027344 " fill-opacity="1" fill-rule="nonzero"/><path fill="#b9c6cd" d="M 1013.964844 182.765625 C 1013.1875 186.824219 1009.273438 189.492188 1005.207031 188.722656 C 1001.144531 187.949219 998.472656 184.035156 999.242188 179.972656 C 1000.011719 175.914062 1003.933594 173.246094 1008 174.011719 C 1012.0625 174.785156 1014.730469 178.703125 1013.964844 182.765625 " fill-opacity="1" fill-rule="nonzero"/><path fill="#a1b6bf" d="M 1012.863281 177.265625 C 1013.253906 178.4375 1013.363281 179.722656 1013.117188 181.027344 C 1012.347656 185.089844 1008.425781 187.757812 1004.359375 186.984375 C 1002.285156 186.589844 1000.574219 185.371094 999.496094 183.738281 C 1000.328125 186.222656 1002.441406 188.199219 1005.207031 188.722656 C 1009.273438 189.492188 1013.1875 186.824219 1013.964844 182.765625 C 1014.335938 180.78125 1013.890625 178.832031 1012.863281 177.265625 " fill-opacity="1" fill-rule="nonzero"/><path fill="#fee24d" d="M 920.210938 167.78125 C 918.222656 167.78125 916.230469 167.71875 914.253906 167.582031 C 911.191406 167.375 908.984375 164.617188 909.53125 161.722656 L 910.675781 155.703125 C 911.195312 152.96875 913.660156 151.074219 916.453125 151.074219 C 916.835938 151.074219 917.226562 151.109375 917.621094 151.183594 L 961.582031 159.523438 C 962.363281 159.671875 962.449219 160.71875 961.699219 160.949219 C 958.871094 161.824219 954.015625 163.21875 947.996094 164.519531 C 946.917969 163.140625 945.351562 162.128906 943.492188 161.773438 C 943.019531 161.6875 942.550781 161.644531 942.085938 161.644531 C 938.878906 161.644531 936 163.707031 934.980469 166.78125 C 930.238281 167.386719 925.226562 167.78125 920.210938 167.78125 " fill-opacity="1" fill-rule="nonzero"/><path fill="#ced7dc" d="M 934.980469 166.78125 C 936 163.707031 938.878906 161.644531 942.085938 161.644531 C 942.550781 161.644531 943.019531 161.6875 943.492188 161.773438 C 945.351562 162.128906 946.917969 163.140625 947.996094 164.519531 C 944.074219 165.367188 939.65625 166.179688 934.980469 166.78125 " fill-opacity="1" fill-rule="nonzero"/><path fill="#fe9001" d="M 1032.640625 243.886719 L 894.941406 217.761719 C 890.914062 217 888.273438 213.117188 889.035156 209.089844 L 892.667969 189.964844 C 893.433594 185.941406 897.320312 183.292969 901.347656 184.054688 L 1039.042969 210.179688 C 1043.074219 210.945312 1045.71875 214.828125 1044.953125 218.855469 L 1041.320312 237.980469 C 1040.558594 242.007812 1036.671875 244.648438 1032.640625 243.886719 " fill-opacity="1" fill-rule="nonzero"/><path fill="#ed8100" d="M 1026.875 237.265625 C 1026.875 237.265625 889.378906 211.132812 888.925781 210.964844 C 889.144531 214.261719 891.546875 217.121094 894.941406 217.765625 L 1032.636719 243.886719 C 1036.671875 244.652344 1040.554688 242.007812 1041.320312 237.984375 C 1041.320312 237.984375 1043.394531 227.003906 1044.792969 219.703125 C 1040.359375 236.195312 1031.226562 238.089844 1026.875 237.265625 " fill-opacity="1" fill-rule="nonzero"/><path fill="#b9c6cd" d="M 937.003906 208.28125 C 936.234375 212.347656 932.3125 215.015625 928.246094 214.242188 C 924.183594 213.472656 921.515625 209.550781 922.289062 205.492188 C 923.058594 201.429688 926.980469 198.765625 931.042969 199.535156 C 935.109375 200.304688 937.773438 204.222656 937.003906 208.28125 " fill-opacity="1" fill-rule="nonzero"/><path fill="#a1b6bf" d="M 935.902344 202.785156 C 936.296875 203.957031 936.40625 205.242188 936.15625 206.546875 C 935.386719 210.609375 931.464844 213.273438 927.402344 212.503906 C 925.324219 212.109375 923.617188 210.894531 922.542969 209.253906 C 923.375 211.738281 925.488281 213.71875 928.246094 214.242188 C 932.3125 215.015625 936.234375 212.347656 937.003906 208.28125 C 937.378906 206.296875 936.929688 204.347656 935.902344 202.785156 " fill-opacity="1" fill-rule="nonzero"/><path fill="#b9c6cd" d="M 1011.703125 222.453125 C 1010.925781 226.515625 1007.011719 229.183594 1002.941406 228.414062 C 998.882812 227.644531 996.210938 223.722656 996.980469 219.664062 C 997.757812 215.601562 1001.675781 212.933594 1005.738281 213.707031 C 1009.800781 214.476562 1012.472656 218.394531 1011.703125 222.453125 " fill-opacity="1" fill-rule="nonzero"/><path fill="#a1b6bf" d="M 1010.597656 216.953125 C 1010.992188 218.125 1011.101562 219.414062 1010.855469 220.71875 C 1010.082031 224.777344 1006.164062 227.445312 1002.097656 226.675781 C 1000.023438 226.28125 998.316406 225.0625 997.234375 223.425781 C 998.070312 225.914062 1000.179688 227.890625 1002.941406 228.414062 C 1007.011719 229.183594 1010.925781 226.515625 1011.703125 222.453125 C 1012.074219 220.46875 1011.628906 218.519531 1010.597656 216.953125 " fill-opacity="1" fill-rule="nonzero"/><path fill="#feac41" d="M 911.316406 204.917969 C 908.289062 204.917969 905.25 204.804688 902.226562 204.554688 C 898.929688 204.285156 896.492188 201.597656 897.011719 198.851562 L 898.097656 193.144531 C 898.578125 190.59375 901.101562 188.863281 904.03125 188.863281 C 904.5 188.863281 904.972656 188.90625 905.457031 188.996094 L 952.921875 198 C 953.765625 198.160156 953.878906 199.160156 953.082031 199.363281 C 949.679688 200.226562 943.535156 201.65625 935.949219 202.847656 C 934.875 201.179688 933.148438 199.933594 931.042969 199.535156 C 930.570312 199.441406 930.097656 199.398438 929.636719 199.398438 C 926.460938 199.398438 923.601562 201.429688 922.5625 204.449219 C 918.910156 204.742188 915.128906 204.917969 911.316406 204.917969 " fill-opacity="1" fill-rule="nonzero"/><path fill="#cbd4da" d="M 922.5625 204.449219 C 923.601562 201.429688 926.460938 199.398438 929.636719 199.398438 C 930.097656 199.398438 930.570312 199.441406 931.042969 199.535156 C 933.148438 199.933594 934.875 201.179688 935.949219 202.847656 L 935.945312 202.847656 C 935.929688 202.828125 935.917969 202.804688 935.902344 202.785156 C 935.914062 202.804688 935.917969 202.828125 935.925781 202.855469 C 931.824219 203.5 927.296875 204.070312 922.5625 204.449219 " fill-opacity="1" fill-rule="nonzero"/><path fill="#b9c8cf" d="M 935.925781 202.855469 C 935.917969 202.828125 935.914062 202.804688 935.902344 202.785156 C 935.917969 202.804688 935.929688 202.828125 935.945312 202.847656 C 935.933594 202.847656 935.929688 202.855469 935.925781 202.855469 " fill-opacity="1" fill-rule="nonzero"/><path fill="#da040c" d="M 1030.910156 283.679688 L 881.964844 255.421875 C 877.9375 254.65625 875.289062 250.773438 876.058594 246.746094 L 879.691406 227.621094 C 880.457031 223.59375 884.34375 220.953125 888.367188 221.714844 L 1037.316406 249.972656 C 1041.339844 250.734375 1043.984375 254.617188 1043.222656 258.644531 L 1039.585938 277.769531 C 1038.820312 281.796875 1034.933594 284.441406 1030.910156 283.679688 " fill-opacity="1" fill-rule="nonzero"/><path fill="#c60513" d="M 1025.140625 277.058594 C 1025.140625 277.058594 876.667969 248.894531 875.957031 248.757812 C 876.226562 251.996094 878.609375 254.789062 881.960938 255.421875 L 1030.902344 283.679688 C 1034.933594 284.445312 1038.824219 281.800781 1039.585938 277.773438 L 1043.21875 258.648438 C 1038.351562 275.253906 1032.039062 278.386719 1025.140625 277.058594 " fill-opacity="1" fill-rule="nonzero"/><path fill="#b9c6cd" d="M 924.53125 246.035156 C 923.757812 250.097656 919.839844 252.765625 915.773438 251.996094 C 911.707031 251.226562 909.042969 247.308594 909.8125 243.242188 C 910.582031 239.183594 914.503906 236.515625 918.570312 237.285156 C 922.628906 238.058594 925.300781 241.972656 924.53125 246.035156 " fill-opacity="1" fill-rule="nonzero"/><path fill="#a1b6bf" d="M 923.429688 240.535156 C 923.820312 241.707031 923.929688 242.996094 923.683594 244.300781 C 922.910156 248.359375 918.992188 251.03125 914.925781 250.253906 C 912.851562 249.867188 911.144531 248.644531 910.066406 247.007812 C 910.898438 249.496094 913.011719 251.472656 915.773438 251.996094 C 919.839844 252.765625 923.757812 250.097656 924.53125 246.035156 C 924.90625 244.050781 924.460938 242.101562 923.429688 240.535156 " fill-opacity="1" fill-rule="nonzero"/><path fill="#b9c6cd" d="M 1009.464844 262.152344 C 1008.695312 266.210938 1004.773438 268.878906 1000.707031 268.113281 C 996.644531 267.335938 993.976562 263.421875 994.742188 259.359375 C 995.519531 255.292969 999.433594 252.628906 1003.5 253.402344 C 1007.570312 254.167969 1010.234375 258.089844 1009.464844 262.152344 " fill-opacity="1" fill-rule="nonzero"/><path fill="#a1b6bf" d="M 1008.363281 256.652344 C 1008.757812 257.824219 1008.867188 259.109375 1008.617188 260.410156 C 1007.847656 264.476562 1003.925781 267.144531 999.863281 266.371094 C 997.785156 265.976562 996.074219 264.757812 995 263.117188 C 995.832031 265.605469 997.949219 267.585938 1000.707031 268.113281 C 1004.773438 268.878906 1008.695312 266.210938 1009.464844 262.152344 C 1009.839844 260.167969 1009.390625 258.214844 1008.363281 256.652344 " fill-opacity="1" fill-rule="nonzero"/><path fill="#e34349" d="M 899.722656 242.601562 C 898.8125 242.601562 897.898438 242.597656 896.988281 242.582031 C 896.09375 239.0625 895.082031 235.4375 893.945312 231.695312 C 893.9375 231.664062 893.925781 231.632812 893.917969 231.601562 C 893.914062 231.589844 893.914062 231.585938 893.90625 231.578125 C 893.886719 231.511719 893.863281 231.4375 893.84375 231.371094 L 893.84375 231.367188 C 893.347656 229.746094 892.855469 228.167969 892.359375 226.632812 C 892.371094 226.632812 892.386719 226.636719 892.402344 226.636719 L 928.070312 233.402344 C 928.75 235.902344 930.089844 238.175781 931.9375 239.984375 C 929.429688 240.367188 926.675781 240.742188 923.761719 241.089844 C 922.726562 239.175781 920.875 237.722656 918.570312 237.285156 C 918.09375 237.199219 917.625 237.15625 917.164062 237.15625 C 913.953125 237.15625 911.066406 239.222656 910.058594 242.296875 C 906.644531 242.496094 903.167969 242.601562 899.722656 242.601562 " fill-opacity="1" fill-rule="nonzero"/><path fill="#cbd4da" d="M 910.058594 242.296875 C 911.066406 239.222656 913.953125 237.15625 917.164062 237.15625 C 917.625 237.15625 918.09375 237.199219 918.570312 237.285156 C 920.875 237.722656 922.726562 239.175781 923.761719 241.089844 C 923.761719 241.089844 923.761719 241.089844 923.757812 241.089844 C 923.65625 240.902344 923.542969 240.714844 923.429688 240.535156 C 923.492188 240.722656 923.542969 240.917969 923.59375 241.109375 C 919.347656 241.605469 914.757812 242.027344 910.058594 242.296875 " fill-opacity="1" fill-rule="nonzero"/><path fill="#b9c8cf" d="M 923.59375 241.109375 C 923.542969 240.917969 923.492188 240.722656 923.429688 240.535156 C 923.542969 240.714844 923.65625 240.902344 923.757812 241.089844 C 923.703125 241.09375 923.652344 241.097656 923.59375 241.109375 " fill-opacity="1" fill-rule="nonzero"/><path fill="#7869c4" d="M 1029.171875 323.472656 L 868.984375 293.082031 C 864.957031 292.316406 862.316406 288.4375 863.070312 284.410156 L 866.710938 265.28125 C 867.472656 261.257812 871.363281 258.613281 875.386719 259.375 L 1035.574219 289.765625 C 1039.597656 290.53125 1042.246094 294.417969 1041.480469 298.441406 L 1037.84375 317.566406 C 1037.078125 321.589844 1033.199219 324.234375 1029.171875 323.472656 " fill-opacity="1" fill-rule="nonzero"/><path fill="#5e52b2" d="M 1037.851562 317.5625 L 1041.484375 298.433594 C 1038.53125 313.980469 1030.019531 318.183594 1019.46875 316.179688 C 1019.46875 316.179688 863.304688 286.554688 862.984375 286.492188 C 863.292969 289.695312 865.667969 292.453125 868.988281 293.082031 L 1029.175781 323.46875 C 1033.203125 324.234375 1037.085938 321.589844 1037.851562 317.5625 " fill-opacity="1" fill-rule="nonzero"/><path fill="#b9c6cd" d="M 913.253906 284.019531 C 912.480469 288.078125 908.5625 290.746094 904.492188 289.976562 C 900.433594 289.203125 897.761719 285.289062 898.53125 281.226562 C 899.308594 277.160156 903.222656 274.496094 907.289062 275.265625 C 911.355469 276.039062 914.023438 279.957031 913.253906 284.019531 " fill-opacity="1" fill-rule="nonzero"/><path fill="#a1b6bf" d="M 912.148438 278.519531 C 912.542969 279.691406 912.65625 280.976562 912.40625 282.277344 C 911.632812 286.34375 907.714844 289.011719 903.652344 288.234375 C 901.574219 287.839844 899.867188 286.625 898.792969 284.984375 C 899.621094 287.476562 901.734375 289.453125 904.492188 289.976562 C 908.5625 290.746094 912.480469 288.078125 913.253906 284.019531 C 913.625 282.03125 913.179688 280.085938 912.148438 278.519531 " fill-opacity="1" fill-rule="nonzero"/><path fill="#b9c6cd" d="M 1006.027344 301.621094 C 1005.257812 305.679688 1001.335938 308.347656 997.277344 307.578125 C 993.207031 306.804688 990.539062 302.890625 991.3125 298.824219 C 992.082031 294.765625 996.003906 292.097656 1000.066406 292.867188 C 1004.132812 293.640625 1006.800781 297.558594 1006.027344 301.621094 " fill-opacity="1" fill-rule="nonzero"/><path fill="#a1b6bf" d="M 1004.925781 296.117188 C 1005.320312 297.292969 1005.429688 298.582031 1005.179688 299.878906 C 1004.410156 303.941406 1000.492188 306.613281 996.425781 305.835938 C 994.347656 305.441406 992.640625 304.226562 991.570312 302.589844 C 992.398438 305.078125 994.511719 307.054688 997.277344 307.578125 C 1001.335938 308.347656 1005.257812 305.679688 1006.027344 301.621094 C 1006.410156 299.632812 1005.957031 297.6875 1004.925781 296.117188 " fill-opacity="1" fill-rule="nonzero"/><path fill="#9a8fd3" d="M 912.554688 279.199219 C 911.535156 277.21875 909.648438 275.714844 907.289062 275.265625 C 906.820312 275.179688 906.347656 275.136719 905.882812 275.136719 C 904.695312 275.136719 903.550781 275.421875 902.53125 275.933594 C 902.371094 273.722656 902.171875 271.46875 901.910156 269.164062 L 935.855469 275.601562 L 935.824219 277.210938 C 931.324219 278.066406 922.855469 278.6875 912.554688 279.199219 " fill-opacity="1" fill-rule="nonzero"/><path fill="#cbd4da" d="M 902.753906 279.644531 C 902.695312 278.421875 902.617188 277.183594 902.53125 275.933594 C 903.550781 275.421875 904.695312 275.136719 905.882812 275.136719 C 906.347656 275.136719 906.820312 275.179688 907.289062 275.265625 C 909.648438 275.714844 911.535156 277.21875 912.554688 279.199219 C 912.554688 279.199219 912.554688 279.199219 912.550781 279.199219 C 912.429688 278.964844 912.292969 278.738281 912.148438 278.519531 C 912.226562 278.742188 912.292969 278.976562 912.347656 279.210938 C 909.285156 279.363281 906.074219 279.503906 902.753906 279.644531 " fill-opacity="1" fill-rule="nonzero"/><path fill="#b9c8cf" d="M 912.347656 279.210938 C 912.292969 278.976562 912.226562 278.742188 912.148438 278.519531 C 912.292969 278.738281 912.429688 278.964844 912.550781 279.199219 C 912.480469 279.207031 912.414062 279.207031 912.347656 279.210938 " fill-opacity="1" fill-rule="nonzero"/><path fill="#62b5ea" d="M 1027.4375 363.261719 L 856.015625 330.738281 C 851.984375 329.972656 849.339844 326.089844 850.109375 322.058594 L 853.742188 302.933594 C 854.503906 298.910156 858.386719 296.265625 862.417969 297.027344 L 1033.847656 329.546875 C 1037.875 330.316406 1040.519531 334.199219 1039.753906 338.226562 L 1036.125 357.355469 C 1035.355469 361.378906 1031.46875 364.023438 1027.4375 363.261719 " fill-opacity="1" fill-rule="nonzero"/><path fill="#4aa8dd" d="M 1016.578125 355.753906 C 1016.578125 355.753906 850.394531 324.230469 850.007812 324.15625 C 850.320312 327.359375 852.683594 330.105469 856.011719 330.738281 L 1027.433594 363.261719 C 1031.464844 364.027344 1035.355469 361.378906 1036.117188 357.355469 L 1039.75 338.226562 C 1036.796875 353.773438 1027.796875 357.882812 1016.578125 355.753906 " fill-opacity="1" fill-rule="nonzero"/><path fill="#b9c6cd" d="M 900.160156 321.65625 C 899.386719 325.710938 895.46875 328.382812 891.402344 327.613281 C 887.339844 326.835938 884.667969 322.925781 885.441406 318.859375 C 886.214844 314.800781 890.128906 312.132812 894.195312 312.902344 C 898.261719 313.675781 900.925781 317.589844 900.160156 321.65625 " fill-opacity="1" fill-rule="nonzero"/><path fill="#a1b6bf" d="M 899.058594 316.152344 C 899.449219 317.328125 899.5625 318.617188 899.3125 319.914062 C 898.542969 323.976562 894.621094 326.644531 890.558594 325.871094 C 888.480469 325.476562 886.773438 324.261719 885.699219 322.625 C 886.523438 325.109375 888.644531 327.089844 891.402344 327.613281 C 895.46875 328.382812 899.386719 325.710938 900.160156 321.65625 C 900.53125 319.667969 900.085938 317.722656 899.058594 316.152344 " fill-opacity="1" fill-rule="nonzero"/><path fill="#b9c6cd" d="M 1004.410156 341.433594 C 1003.640625 345.492188 999.71875 348.160156 995.652344 347.386719 C 991.589844 346.617188 988.921875 342.703125 989.691406 338.640625 C 990.464844 334.574219 994.382812 331.910156 998.449219 332.679688 C 1002.515625 333.449219 1005.179688 337.371094 1004.410156 341.433594 " fill-opacity="1" fill-rule="nonzero"/><path fill="#a1b6bf" d="M 1003.308594 335.929688 C 1003.703125 337.105469 1003.816406 338.390625 1003.566406 339.691406 C 1002.792969 343.757812 998.875 346.421875 994.8125 345.652344 C 992.730469 345.257812 991.023438 344.039062 989.945312 342.402344 C 990.777344 344.886719 992.894531 346.867188 995.652344 347.390625 C 999.71875 348.160156 1003.640625 345.492188 1004.410156 341.433594 C 1004.785156 339.449219 1004.339844 337.5 1003.308594 335.929688 " fill-opacity="1" fill-rule="nonzero"/><path fill="#89c8ef" d="M 900.558594 315.941406 C 900.949219 313.453125 901.308594 310.925781 901.625 308.339844 L 923.476562 312.484375 C 924.394531 312.65625 924.539062 313.660156 923.671875 313.847656 C 919.519531 314.757812 911.039062 315.40625 900.558594 315.941406 " fill-opacity="1" fill-rule="nonzero"/><path fill="#0164d6" d="M 1025.703125 403.050781 L 843.035156 368.394531 C 839.007812 367.632812 836.363281 363.75 837.125 359.722656 L 840.757812 340.597656 C 841.523438 336.570312 845.40625 333.925781 849.4375 334.691406 L 1032.105469 369.34375 C 1036.132812 370.105469 1038.777344 373.988281 1038.011719 378.015625 L 1034.382812 397.144531 C 1033.617188 401.171875 1029.730469 403.816406 1025.703125 403.050781 " fill-opacity="1" fill-rule="nonzero"/><path fill="#005daa" d="M 1034.375 397.148438 L 1038.011719 378.023438 C 1035.054688 393.566406 1025.578125 397.585938 1013.679688 395.324219 L 837.03125 361.8125 C 837.335938 365.019531 839.710938 367.773438 843.03125 368.398438 L 1025.699219 403.050781 C 1029.730469 403.816406 1033.613281 401.175781 1034.375 397.148438 " fill-opacity="1" fill-rule="nonzero"/><path fill="#b9c6cd" d="M 1000.898438 380.886719 C 1000.128906 384.945312 996.207031 387.613281 992.140625 386.84375 C 988.078125 386.070312 985.410156 382.15625 986.175781 378.09375 C 986.953125 374.03125 990.871094 371.363281 994.9375 372.132812 C 999.003906 372.902344 1001.667969 376.824219 1000.898438 380.886719 " fill-opacity="1" fill-rule="nonzero"/><path fill="#a1b6bf" d="M 999.796875 375.386719 C 1000.191406 376.558594 1000.300781 377.847656 1000.050781 379.148438 C 999.28125 383.210938 995.359375 385.878906 991.296875 385.101562 C 989.21875 384.707031 987.511719 383.492188 986.4375 381.851562 C 987.269531 384.339844 989.382812 386.320312 992.140625 386.84375 C 996.207031 387.613281 1000.128906 384.945312 1000.898438 380.886719 C 1001.273438 378.902344 1000.824219 376.949219 999.796875 375.386719 " fill-opacity="1" fill-rule="nonzero"/><path fill="#b9c6cd" d="M 888.960938 359.648438 C 888.183594 363.707031 884.269531 366.378906 880.203125 365.609375 C 876.136719 364.835938 873.472656 360.917969 874.242188 356.855469 C 875.011719 352.792969 878.933594 350.128906 883 350.898438 C 887.058594 351.667969 889.730469 355.585938 888.960938 359.648438 " fill-opacity="1" fill-rule="nonzero"/><path fill="#a1b6bf" d="M 887.859375 354.148438 C 888.25 355.320312 888.359375 356.605469 888.113281 357.910156 C 887.34375 361.972656 883.421875 364.640625 879.355469 363.867188 C 877.28125 363.472656 875.574219 362.257812 874.496094 360.617188 C 875.328125 363.109375 877.441406 365.085938 880.203125 365.609375 C 884.269531 366.378906 888.183594 363.707031 888.960938 359.648438 C 889.335938 357.664062 888.886719 355.714844 887.859375 354.148438 " fill-opacity="1" fill-rule="nonzero"/><path fill="#418be0" d="M 892.484375 354.996094 C 893.207031 352.578125 893.859375 350.167969 894.445312 347.785156 L 916.472656 351.964844 C 917.480469 352.15625 917.660156 353.167969 916.710938 353.339844 C 912.3125 354.152344 903.464844 354.648438 892.484375 354.996094 " fill-opacity="1" fill-rule="nonzero"/><path fill="#76c70e" d="M 1023.96875 442.839844 L 830.054688 406.050781 C 826.027344 405.292969 823.378906 401.40625 824.144531 397.382812 L 827.777344 378.257812 C 828.546875 374.230469 832.425781 371.585938 836.464844 372.351562 L 1030.371094 409.136719 C 1034.394531 409.898438 1037.042969 413.785156 1036.28125 417.808594 L 1032.648438 436.933594 C 1031.878906 440.960938 1027.992188 443.605469 1023.96875 442.839844 " fill-opacity="1" fill-rule="nonzero"/><path fill="#6fb708" d="M 1032.648438 436.933594 L 1036.285156 417.808594 C 1033.328125 433.355469 1023.371094 437.28125 1010.796875 434.894531 L 824.054688 399.46875 C 824.359375 402.671875 826.734375 405.421875 830.058594 406.050781 L 1023.96875 442.839844 C 1028 443.605469 1031.886719 440.957031 1032.648438 436.933594 " fill-opacity="1" fill-rule="nonzero"/><path fill="#b9c6cd" d="M 998.160156 420.484375 C 997.390625 424.546875 993.46875 427.214844 989.40625 426.441406 C 985.339844 425.671875 982.675781 421.753906 983.445312 417.695312 C 984.214844 413.628906 988.136719 410.964844 992.199219 411.738281 C 996.265625 412.503906 998.933594 416.425781 998.160156 420.484375 " fill-opacity="1" fill-rule="nonzero"/><path fill="#a1b6bf" d="M 997.0625 414.988281 C 997.453125 416.160156 997.5625 417.445312 997.320312 418.746094 C 996.542969 422.8125 992.625 425.476562 988.5625 424.707031 C 986.484375 424.3125 984.773438 423.09375 983.699219 421.453125 C 984.53125 423.941406 986.644531 425.917969 989.40625 426.441406 C 993.46875 427.214844 997.390625 424.546875 998.160156 420.484375 C 998.539062 418.496094 998.085938 416.550781 997.0625 414.988281 " fill-opacity="1" fill-rule="nonzero"/><path fill="#b9c6cd" d="M 876.984375 397.496094 C 876.214844 401.554688 872.292969 404.226562 868.226562 403.453125 C 864.164062 402.6875 861.492188 398.765625 862.265625 394.703125 C 863.039062 390.644531 866.957031 387.976562 871.023438 388.742188 C 875.085938 389.519531 877.753906 393.433594 876.984375 397.496094 " fill-opacity="1" fill-rule="nonzero"/><path fill="#a1b6bf" d="M 875.882812 391.996094 C 876.273438 393.167969 876.386719 394.457031 876.136719 395.761719 C 875.367188 399.820312 871.445312 402.488281 867.382812 401.714844 C 865.304688 401.324219 863.597656 400.101562 862.523438 398.46875 C 863.351562 400.953125 865.46875 402.929688 868.226562 403.453125 C 872.292969 404.226562 876.214844 401.554688 876.984375 397.496094 C 877.359375 395.511719 876.910156 393.5625 875.882812 391.996094 " fill-opacity="1" fill-rule="nonzero"/><path fill="#98d54a" d="M 887.679688 392.179688 C 888.257812 391.113281 888.648438 389.921875 888.792969 388.648438 C 888.886719 387.847656 888.878906 387.050781 888.777344 386.28125 L 905.710938 389.496094 C 906.757812 389.691406 906.941406 390.703125 905.96875 390.871094 C 902.367188 391.496094 895.875 391.898438 887.679688 392.179688 " fill-opacity="1" fill-rule="nonzero"/><path fill="#62b5ea" d="M 388.144531 342.550781 L 395.722656 355.914062 L 441.484375 330.011719 L 433.90625 316.644531 L 388.144531 342.550781 " fill-opacity="1" fill-rule="nonzero"/><path fill="#62b5ea" d="M 398.414062 360.664062 L 405.992188 374.035156 L 451.753906 348.128906 L 444.175781 334.761719 L 398.414062 360.664062 " fill-opacity="1" fill-rule="nonzero"/><path fill="#62b5ea" d="M 409.191406 379.675781 L 416.765625 393.042969 L 462.527344 367.136719 L 454.953125 353.773438 L 409.191406 379.675781 " fill-opacity="1" fill-rule="nonzero"/><path fill="#4aa8dd" d="M 430.871094 318.359375 L 438.445312 331.730469 L 441.484375 330.011719 L 433.90625 316.644531 L 430.871094 318.359375 " fill-opacity="1" fill-rule="nonzero"/><path fill="#4aa8dd" d="M 441.140625 336.480469 L 448.714844 349.847656 L 451.753906 348.128906 L 444.175781 334.761719 L 441.140625 336.480469 " fill-opacity="1" fill-rule="nonzero"/><path fill="#4aa8dd" d="M 451.914062 355.492188 L 459.492188 368.859375 L 462.527344 367.136719 L 454.953125 353.773438 L 451.914062 355.492188 " fill-opacity="1" fill-rule="nonzero"/><path fill="#4aa8dd" d="M 404.183594 333.46875 L 385.71875 343.921875 L 393.292969 357.289062 L 421.679688 341.222656 C 416.609375 341.59375 409.324219 340.601562 404.183594 333.46875 " fill-opacity="1" fill-rule="nonzero"/><path fill="#4aa8dd" d="M 414.457031 351.589844 L 395.988281 362.039062 L 403.5625 375.410156 L 431.949219 359.335938 C 426.882812 359.707031 419.597656 358.71875 414.457031 351.589844 " fill-opacity="1" fill-rule="nonzero"/><path fill="#4aa8dd" d="M 425.230469 370.59375 L 406.761719 381.050781 L 414.339844 394.417969 L 442.722656 378.347656 C 437.65625 378.71875 430.371094 377.726562 425.230469 370.59375 " fill-opacity="1" fill-rule="nonzero"/><path fill="#62b5ea" d="M 430.050781 303.5 C 426.492188 297.21875 418.480469 295.003906 412.195312 298.5625 L 395.261719 308.144531 C 390.3125 310.949219 388.566406 317.253906 391.371094 322.199219 L 434.738281 398.710938 C 437.542969 403.65625 443.851562 405.402344 448.800781 402.601562 L 465.734375 393.015625 C 472.015625 389.460938 474.234375 381.453125 470.675781 375.171875 L 430.050781 303.5 M 420.472656 406.785156 L 377.105469 330.277344 C 369.84375 317.464844 374.367188 301.144531 387.183594 293.886719 L 404.113281 284.300781 C 418.265625 276.289062 436.300781 281.285156 444.316406 295.421875 L 484.941406 367.101562 C 492.957031 381.238281 487.964844 399.261719 473.8125 407.273438 L 456.882812 416.859375 C 444.066406 424.113281 427.730469 419.59375 420.472656 406.785156 " fill-opacity="1" fill-rule="nonzero"/><path fill="#4aa8dd" d="M 479.714844 402.878906 L 479.71875 402.878906 L 479.769531 402.824219 C 479.855469 402.742188 479.933594 402.660156 480.019531 402.578125 C 480.335938 402.277344 480.636719 401.957031 480.933594 401.632812 C 481.027344 401.53125 481.121094 401.429688 481.214844 401.324219 C 481.570312 400.925781 481.917969 400.523438 482.253906 400.109375 C 482.296875 400.050781 482.339844 399.992188 482.382812 399.941406 C 482.6875 399.558594 482.972656 399.167969 483.257812 398.773438 C 483.320312 398.683594 483.386719 398.59375 483.453125 398.503906 C 483.765625 398.050781 484.066406 397.59375 484.355469 397.125 L 484.394531 397.0625 C 484.671875 396.605469 484.9375 396.144531 485.191406 395.671875 C 485.230469 395.601562 485.269531 395.527344 485.308594 395.453125 C 485.839844 394.453125 486.3125 393.421875 486.722656 392.371094 C 486.742188 392.324219 486.761719 392.273438 486.777344 392.226562 C 487.195312 391.148438 487.546875 390.042969 487.832031 388.921875 L 487.855469 388.851562 C 488.140625 387.703125 488.363281 386.550781 488.515625 385.378906 L 488.519531 385.355469 C 489.304688 379.246094 488.203125 372.851562 484.941406 367.101562 L 444.316406 295.421875 C 437.542969 283.46875 423.617188 278.058594 410.921875 281.503906 L 419.652344 296.902344 C 423.851562 297.230469 427.824219 299.566406 430.050781 303.5 L 470.675781 375.171875 C 472.902344 379.101562 472.867188 383.710938 470.988281 387.480469 C 474.558594 393.769531 472.359375 401.757812 466.078125 405.351562 C 461.878906 407.746094 458.125 409.882812 458.125 409.882812 C 441.203125 419.460938 430.617188 415.511719 421.898438 400.128906 L 379.136719 324.683594 C 375.535156 318.335938 374.910156 311.089844 376.804688 304.535156 C 372.648438 312.332031 372.433594 322.027344 377.105469 330.277344 L 420.472656 406.785156 C 427.742188 419.617188 444.046875 424.125 456.882812 416.859375 L 473.8125 407.273438 C 476.007812 406.035156 477.976562 404.546875 479.714844 402.878906 " fill-opacity="1" fill-rule="nonzero"/><path fill="#62b5ea" d="M 491.609375 418.445312 L 406.316406 267.96875 L 426.027344 256.8125 L 511.316406 407.289062 L 491.609375 418.445312 " fill-opacity="1" fill-rule="nonzero"/><path fill="#6494af" d="M 465.019531 311.878906 L 461.570312 305.789062 L 470.535156 300.714844 L 473.988281 306.804688 L 465.019531 311.878906 " fill-opacity="1" fill-rule="nonzero"/><path fill="#53859b" d="M 462.417969 305.308594 L 461.570312 305.789062 L 465.019531 311.878906 L 468.484375 309.917969 C 468.484375 309.917969 465.558594 310.320312 462.417969 305.308594 " fill-opacity="1" fill-rule="nonzero"/><path fill="#53859b" d="M 467.222656 302.585938 L 470.675781 308.679688 L 473.988281 306.804688 L 470.535156 300.714844 L 467.222656 302.585938 " fill-opacity="1" fill-rule="nonzero"/><path fill="#62b5ea" d="M 479.011719 306.902344 L 473.039062 296.355469 C 472.066406 294.648438 469.898438 294.046875 468.1875 295.011719 C 466.476562 295.984375 465.875 298.152344 466.84375 299.859375 L 472.820312 310.40625 C 473.789062 312.113281 475.960938 312.714844 477.671875 311.746094 C 479.382812 310.78125 479.980469 308.605469 479.011719 306.902344 " fill-opacity="1" fill-rule="nonzero"/><path fill="#89c8ef" d="M 474 300.289062 C 473.511719 300.289062 470.375 298.511719 469.71875 297.316406 C 469.410156 296.75 469.597656 296.039062 470.160156 295.71875 C 470.34375 295.613281 470.542969 295.566406 470.738281 295.566406 C 471.148438 295.566406 471.542969 295.777344 471.761719 296.160156 L 474.046875 300.195312 C 474.082031 300.257812 474.0625 300.289062 474 300.289062 " fill-opacity="1" fill-rule="nonzero"/><path fill="#4aa8dd" d="M 479.46875 308.785156 C 479.167969 309.257812 478.75 309.664062 478.230469 309.960938 L 477.398438 310.429688 C 476.148438 311.136719 474.558594 310.699219 473.851562 309.449219 L 467.402344 298.074219 C 467.0625 297.480469 466.921875 296.824219 466.945312 296.191406 C 466.257812 297.261719 466.171875 298.671875 466.84375 299.859375 L 472.820312 310.40625 C 473.789062 312.113281 475.960938 312.714844 477.671875 311.746094 C 478.785156 311.117188 479.425781 309.976562 479.46875 308.785156 " fill-opacity="1" fill-rule="nonzero"/><path fill="#62b5ea" d="M 466.574219 315.808594 C 467.101562 315.507812 467.285156 314.839844 466.988281 314.3125 L 460.492188 302.855469 C 460.195312 302.328125 459.523438 302.140625 459 302.441406 L 453.617188 305.484375 L 461.191406 318.851562 L 466.574219 315.808594 " fill-opacity="1" fill-rule="nonzero"/><path fill="#89c8ef" d="M 462.390625 307.941406 C 461.902344 307.941406 458.765625 306.164062 458.109375 304.96875 C 457.796875 304.398438 457.988281 303.6875 458.550781 303.371094 C 458.734375 303.265625 458.929688 303.21875 459.125 303.21875 C 459.535156 303.21875 459.929688 303.433594 460.148438 303.8125 L 462.433594 307.847656 C 462.46875 307.910156 462.453125 307.941406 462.390625 307.941406 " fill-opacity="1" fill-rule="nonzero"/><path fill="#4aa8dd" d="M 454.300781 305.097656 L 453.617188 305.484375 L 461.191406 318.851562 L 466.410156 315.898438 C 462.671875 316.710938 459.472656 314.398438 454.300781 305.097656 " fill-opacity="1" fill-rule="nonzero"/><path fill="#6494af" d="M 475.289062 329.996094 L 471.839844 323.910156 L 480.804688 318.835938 L 484.257812 324.925781 L 475.289062 329.996094 " fill-opacity="1" fill-rule="nonzero"/><path fill="#53859b" d="M 477.496094 320.707031 L 480.945312 326.800781 L 484.257812 324.925781 L 480.804688 318.835938 L 477.496094 320.707031 " fill-opacity="1" fill-rule="nonzero"/><path fill="#62b5ea" d="M 489.285156 325.019531 L 483.308594 314.476562 C 482.339844 312.765625 480.167969 312.167969 478.457031 313.132812 C 476.746094 314.105469 476.148438 316.273438 477.113281 317.980469 L 483.09375 328.527344 C 484.0625 330.234375 486.230469 330.835938 487.941406 329.867188 C 489.652344 328.894531 490.253906 326.730469 489.285156 325.019531 " fill-opacity="1" fill-rule="nonzero"/><path fill="#89c8ef" d="M 479.871094 315.125 C 479.757812 314.628906 479.964844 314.097656 480.429688 313.835938 C 480.535156 313.777344 480.644531 313.738281 480.753906 313.714844 C 480.46875 314.175781 480.175781 314.648438 479.871094 315.125 " fill-opacity="1" fill-rule="nonzero"/><path fill="#4aa8dd" d="M 489.742188 326.90625 C 489.4375 327.375 489.019531 327.785156 488.5 328.078125 L 487.664062 328.550781 C 486.414062 329.257812 484.828125 328.820312 484.121094 327.570312 L 477.671875 316.191406 C 477.335938 315.601562 477.191406 314.945312 477.214844 314.3125 C 476.527344 315.382812 476.441406 316.792969 477.113281 317.980469 L 483.089844 328.527344 C 484.0625 330.234375 486.230469 330.835938 487.941406 329.867188 C 489.054688 329.238281 489.695312 328.09375 489.742188 326.90625 " fill-opacity="1" fill-rule="nonzero"/><path fill="#53859b" d="M 472.691406 323.429688 L 471.839844 323.910156 L 475.289062 329.996094 L 478.753906 328.035156 C 478.753906 328.035156 475.824219 328.441406 472.691406 323.429688 " fill-opacity="1" fill-rule="nonzero"/><path fill="#62b5ea" d="M 476.84375 333.925781 C 477.371094 333.628906 477.558594 332.957031 477.257812 332.433594 L 470.761719 320.972656 C 470.464844 320.445312 469.796875 320.257812 469.265625 320.558594 L 463.886719 323.605469 L 471.460938 336.96875 L 476.84375 333.925781 " fill-opacity="1" fill-rule="nonzero"/><path fill="#4aa8dd" d="M 464.570312 323.21875 L 463.886719 323.605469 L 471.460938 336.96875 L 476.679688 334.019531 C 472.941406 334.828125 469.746094 332.519531 464.570312 323.21875 " fill-opacity="1" fill-rule="nonzero"/><path fill="#89c8ef" d="M 472.0625 325.851562 C 470.980469 325.351562 468.898438 324.035156 468.378906 323.082031 C 468.066406 322.519531 468.257812 321.808594 468.820312 321.492188 C 469.003906 321.382812 469.203125 321.335938 469.398438 321.335938 C 469.804688 321.335938 470.203125 321.546875 470.417969 321.929688 L 472.402344 325.433594 C 472.289062 325.574219 472.175781 325.710938 472.0625 325.851562 " fill-opacity="1" fill-rule="nonzero"/><path fill="#6494af" d="M 486.066406 349.007812 L 482.613281 342.917969 L 491.578125 337.84375 L 495.03125 343.933594 L 486.066406 349.007812 " fill-opacity="1" fill-rule="nonzero"/><path fill="#53859b" d="M 488.269531 339.714844 L 491.71875 345.804688 L 495.03125 343.933594 L 491.578125 337.84375 L 488.269531 339.714844 " fill-opacity="1" fill-rule="nonzero"/><path fill="#62b5ea" d="M 500.058594 344.03125 L 494.082031 333.484375 C 493.113281 331.777344 490.941406 331.175781 489.230469 332.140625 C 487.519531 333.109375 486.921875 335.285156 487.890625 336.992188 L 493.867188 347.535156 C 494.835938 349.242188 497.007812 349.84375 498.714844 348.878906 C 500.425781 347.90625 501.027344 345.738281 500.058594 344.03125 " fill-opacity="1" fill-rule="nonzero"/><path fill="#53859b" d="M 483.464844 342.4375 L 482.613281 342.917969 L 486.066406 349.007812 L 489.527344 347.046875 C 489.527344 347.046875 486.601562 347.449219 483.464844 342.4375 " fill-opacity="1" fill-rule="nonzero"/><path fill="#4aa8dd" d="M 500.515625 345.914062 C 500.210938 346.386719 499.796875 346.792969 499.273438 347.089844 L 498.441406 347.558594 C 497.191406 348.265625 495.605469 347.828125 494.894531 346.578125 L 488.449219 335.199219 C 488.109375 334.609375 487.964844 333.957031 487.992188 333.320312 C 487.304688 334.394531 487.214844 335.800781 487.890625 336.992188 L 493.867188 347.535156 C 494.835938 349.242188 497.007812 349.84375 498.714844 348.878906 C 499.828125 348.25 500.46875 347.101562 500.515625 345.914062 " fill-opacity="1" fill-rule="nonzero"/><path fill="#62b5ea" d="M 487.617188 352.9375 C 488.144531 352.640625 488.332031 351.964844 488.03125 351.441406 L 481.539062 339.980469 C 481.238281 339.457031 480.570312 339.269531 480.042969 339.566406 L 474.660156 342.617188 L 482.238281 355.980469 L 487.617188 352.9375 " fill-opacity="1" fill-rule="nonzero"/><path fill="#4aa8dd" d="M 475.347656 342.226562 L 474.660156 342.617188 L 482.238281 355.980469 L 487.457031 353.027344 C 483.71875 353.835938 480.519531 351.527344 475.347656 342.226562 " fill-opacity="1" fill-rule="nonzero"/><path fill="#89c8ef" d="M 446.609375 299.605469 C 445.054688 299.605469 424.4375 279.148438 417.507812 270.078125 C 416.304688 268.507812 416.511719 266.300781 418.234375 265.324219 L 422.519531 262.902344 C 422.996094 262.632812 423.511719 262.503906 424.023438 262.503906 C 425.09375 262.503906 426.128906 263.0625 426.691406 264.058594 L 446.507812 299.019531 C 446.734375 299.417969 446.761719 299.605469 446.609375 299.605469 " fill-opacity="1" fill-rule="nonzero"/><path fill="#fdd600" d="M 426.027344 256.8125 C 426.027344 256.8125 415 235.574219 419.671875 209.78125 C 424.339844 183.988281 434.394531 166.917969 434.394531 166.917969 C 434.394531 166.917969 419.890625 161.441406 373.757812 187.554688 C 327.625 213.675781 324.867188 228.921875 324.867188 228.921875 C 324.867188 228.921875 344.6875 229.082031 369.222656 238.339844 C 393.757812 247.597656 406.316406 267.96875 406.316406 267.96875 L 426.027344 256.8125 " fill-opacity="1" fill-rule="nonzero"/><path fill="#f4c500" d="M 422.445312 247.671875 C 408.308594 253.03125 397.652344 242.203125 378.617188 232.171875 C 359.367188 222.027344 344.773438 218.160156 332.808594 217.171875 C 325.617188 224.800781 324.867188 228.921875 324.867188 228.921875 C 324.867188 228.921875 344.6875 229.082031 369.222656 238.339844 C 393.757812 247.597656 406.316406 267.96875 406.316406 267.96875 L 426.027344 256.8125 C 426.027344 256.8125 424.261719 253.410156 422.445312 247.671875 " fill-opacity="1" fill-rule="nonzero"/><path fill="#fee24d" d="M 413.375 206.609375 C 407.082031 203.441406 372.09375 197.109375 372.09375 197.109375 C 395.625 178.996094 423.460938 173.046875 423.460938 173.046875 C 414.941406 188.070312 413.375 206.609375 413.375 206.609375 " fill-opacity="1" fill-rule="nonzero"/><path fill="#fcc000" d="M 321.742188 230.691406 C 321.226562 229.777344 321.109375 228.652344 321.527344 227.597656 C 321.828125 226.832031 329.453125 208.515625 371.988281 184.433594 C 415.117188 160.015625 434.265625 163.242188 435.058594 163.390625 C 437.007812 163.757812 438.292969 165.636719 437.925781 167.582031 C 437.5625 169.519531 435.703125 170.800781 433.765625 170.457031 C 433.394531 170.402344 415.609375 167.992188 375.527344 190.679688 C 335.179688 213.523438 328.277344 230.078125 328.210938 230.242188 C 327.480469 232.085938 325.394531 232.992188 323.550781 232.261719 C 322.753906 231.949219 322.132812 231.378906 321.742188 230.691406 " fill-opacity="1" fill-rule="nonzero"/><path fill="#4aa8dd" d="M 409.488281 266.179688 L 406.316406 267.96875 L 491.609375 418.445312 L 497.628906 415.039062 C 489.394531 406.445312 476.601562 384.578125 409.488281 266.179688 " fill-opacity="1" fill-rule="nonzero"/><path fill="#fdd600" d="M 503.285156 439.046875 L 491.609375 418.445312 L 511.316406 407.289062 L 522.992188 427.890625 L 503.285156 439.046875 " fill-opacity="1" fill-rule="nonzero"/><path fill="#f4c500" d="M 501.617188 418.632812 C 500.261719 417.546875 499.007812 416.476562 497.628906 415.039062 L 491.609375 418.445312 L 503.285156 439.046875 L 521.449219 428.761719 C 521.449219 428.761719 513.449219 428.101562 501.617188 418.632812 " fill-opacity="1" fill-rule="nonzero"/><path fill="#fcc000" d="M 524.679688 427.769531 C 524.25 427.007812 523.285156 426.742188 522.527344 427.171875 L 502.910156 438.277344 C 502.152344 438.703125 501.882812 439.671875 502.3125 440.425781 C 502.742188 441.1875 503.707031 441.453125 504.464844 441.023438 L 524.082031 429.917969 C 524.84375 429.492188 525.109375 428.523438 524.679688 427.769531 " fill-opacity="1" fill-rule="nonzero"/><path fill="#005daa" d="M 545.015625 439.042969 L 537.933594 445.375 C 537.933594 445.375 544.46875 458.296875 548.386719 457.585938 C 552.660156 456.8125 553.875 442.480469 553.875 442.480469 L 545.015625 439.042969 " fill-opacity="1" fill-rule="nonzero"/><path fill="#0164d6" d="M 542.464844 425.007812 L 515.449219 438.449219 C 515.449219 438.449219 528.671875 448.863281 546.222656 445.675781 C 566.664062 441.960938 572.488281 428.097656 572.488281 428.097656 L 542.464844 425.007812 " fill-opacity="1" fill-rule="nonzero"/><path fill="#005daa" d="M 567.875 427.621094 C 566.074219 430.894531 559.203125 441.070312 542.128906 444.171875 C 534.984375 445.472656 528.558594 444.515625 523.449219 442.921875 C 528.992188 445.273438 537.007812 447.347656 546.222656 445.675781 C 566.664062 441.960938 572.488281 428.097656 572.488281 428.097656 L 567.875 427.621094 " fill-opacity="1" fill-rule="nonzero"/><path fill="#aeabc6" d="M 515.496094 256.59375 L 508.425781 257.878906 L 509.359375 263 L 516.425781 261.714844 L 515.496094 256.59375 " fill-opacity="1" fill-rule="nonzero"/><path fill="#8f8eaf" d="M 508.867188 260.304688 L 515.9375 259.019531 L 515.496094 256.59375 L 508.425781 257.878906 L 508.867188 260.304688 " fill-opacity="1" fill-rule="nonzero"/><path fill="#62b5ea" d="M 536.535156 273.390625 L 494.644531 281 L 493.070312 272.332031 C 492.289062 268.046875 495.136719 263.941406 499.421875 263.160156 L 525.78125 258.378906 C 530.070312 257.597656 534.179688 260.441406 534.960938 264.722656 L 536.535156 273.390625 " fill-opacity="1" fill-rule="nonzero"/><path fill="#4aa8dd" d="M 494.082031 277.894531 L 494.644531 281 L 536.535156 273.390625 L 534.960938 264.722656 C 534.613281 262.832031 533.613281 261.21875 532.242188 260.074219 C 532.269531 268.5 518.625 273.804688 494.082031 277.894531 " fill-opacity="1" fill-rule="nonzero"/><path fill="#89c8ef" d="M 499.136719 269.691406 C 498.019531 269.691406 497.050781 269.101562 496.882812 268.1875 C 496.636719 266.832031 497.867188 265.476562 499.632812 265.160156 L 511.238281 263.046875 C 511.261719 263.046875 511.277344 263.042969 511.300781 263.042969 C 511.476562 263.042969 511.582031 263.195312 511.476562 263.332031 C 510.414062 264.636719 507.210938 267.222656 500.15625 269.53125 C 499.8125 269.640625 499.46875 269.691406 499.136719 269.691406 " fill-opacity="1" fill-rule="nonzero"/><path fill="#62b5ea" d="M 552.953125 388.484375 L 536.371094 391.496094 L 519.789062 394.503906 L 437.925781 409.375 C 437.925781 409.375 450.933594 429.992188 480.9375 435.601562 C 512.570312 441.519531 528.832031 438.566406 544.414062 435.734375 C 559.996094 432.90625 577.390625 429.746094 603.789062 413.292969 C 629.707031 397.144531 634.820312 373.621094 634.820312 373.621094 L 552.953125 388.484375 " fill-opacity="1" fill-rule="nonzero"/><path fill="#4aa8dd" d="M 619.972656 376.316406 C 616.480469 384.515625 608.4375 398.386719 591.332031 409.042969 C 564.933594 425.496094 547.542969 428.65625 531.960938 431.480469 C 516.375 434.316406 500.113281 437.269531 468.480469 431.351562 C 467.078125 431.09375 465.710938 430.792969 464.378906 430.472656 C 469.1875 432.617188 474.691406 434.433594 480.9375 435.601562 C 512.570312 441.519531 528.832031 438.566406 544.414062 435.734375 C 560 432.90625 577.390625 429.746094 603.789062 413.292969 C 629.707031 397.144531 634.820312 373.621094 634.820312 373.621094 L 619.972656 376.316406 " fill-opacity="1" fill-rule="nonzero"/><path fill="#4aa8dd" d="M 443.730469 416.304688 L 631.71875 382.164062 C 634.074219 377.039062 634.820312 373.621094 634.820312 373.621094 L 552.953125 388.484375 L 536.371094 391.496094 L 519.789062 394.503906 L 437.925781 409.375 C 437.925781 409.375 439.789062 412.328125 443.730469 416.304688 " fill-opacity="1" fill-rule="nonzero"/><path fill="#0164d6" d="M 595.207031 318.28125 C 552.285156 299.722656 546.167969 283.996094 543.25 275.601562 C 542.207031 272.605469 539.125 270.828125 536.003906 271.394531 L 494.441406 278.941406 C 491.316406 279.507812 489.0625 282.257812 489.140625 285.433594 C 489.363281 294.3125 489.167969 311.1875 455.527344 343.644531 C 426.621094 371.539062 439.097656 407.066406 439.671875 409.058594 C 472.210938 404.027344 600.84375 380.671875 633.070312 373.9375 C 632.910156 371.871094 632.082031 334.230469 595.207031 318.28125 " fill-opacity="1" fill-rule="nonzero"/><path fill="#005daa" d="M 595.207031 318.28125 C 576.671875 310.265625 565 302.78125 557.484375 296.179688 C 576.140625 315.71875 583.671875 328.859375 586.167969 339.433594 C 594.90625 376.429688 482.496094 390.5625 437.308594 399.027344 C 438.160156 403.800781 439.511719 408.507812 439.671875 409.058594 C 472.210938 404.027344 600.84375 380.671875 633.070312 373.9375 C 632.910156 371.871094 632.082031 334.230469 595.207031 318.28125 " fill-opacity="1" fill-rule="nonzero"/><path fill="#fdd600" d="M 634.578125 379.648438 L 440.273438 414.933594 C 437.070312 415.515625 434.003906 413.390625 433.421875 410.191406 C 432.839844 406.988281 434.960938 403.921875 438.164062 403.339844 L 632.46875 368.0625 C 635.671875 367.480469 638.742188 369.601562 639.324219 372.804688 C 639.90625 376.003906 637.78125 379.070312 634.578125 379.648438 " fill-opacity="1" fill-rule="nonzero"/><path fill="#ffffff" d="M 436.820312 394.914062 L 630.761719 359.691406 C 629.925781 356.617188 628.777344 353.214844 627.207031 349.695312 L 436.628906 384.300781 C 436.398438 388.152344 436.519531 391.734375 436.820312 394.914062 " fill-opacity="1" fill-rule="nonzero"/><path fill="#ffffff" d="M 437.652344 376.097656 L 623.363281 342.375 C 621.90625 340 620.226562 337.628906 618.300781 335.3125 L 439.902344 367.703125 C 438.914062 370.550781 438.175781 373.363281 437.652344 376.097656 " fill-opacity="1" fill-rule="nonzero"/><path fill="#ffffff" d="M 444.753906 357.207031 L 610.0625 327.1875 C 608.230469 325.707031 606.246094 324.289062 604.109375 322.953125 L 448.835938 351.144531 C 447.308594 353.152344 445.949219 355.179688 444.753906 357.207031 " fill-opacity="1" fill-rule="nonzero"/><path fill="#e4ebf2" d="M 630.761719 359.691406 C 630.660156 359.3125 630.550781 358.929688 630.4375 358.539062 L 630.414062 358.460938 C 630.3125 358.109375 630.207031 357.757812 630.097656 357.40625 C 630.074219 357.335938 630.054688 357.265625 630.03125 357.199219 C 629.929688 356.871094 629.824219 356.53125 629.714844 356.203125 C 629.695312 356.140625 629.675781 356.082031 629.65625 356.023438 C 629.53125 355.648438 629.402344 355.269531 629.269531 354.890625 L 629.253906 354.847656 C 628.667969 353.179688 627.988281 351.453125 627.207031 349.695312 L 579.015625 358.445312 C 572.296875 364.675781 561.617188 369.988281 548.882812 374.5625 L 630.761719 359.691406 " fill-opacity="1" fill-rule="nonzero"/><path fill="#e4ebf2" d="M 623.363281 342.375 C 623.03125 341.832031 622.683594 341.292969 622.328125 340.75 C 622.265625 340.660156 622.207031 340.5625 622.144531 340.472656 C 621.386719 339.335938 620.582031 338.207031 619.71875 337.085938 L 619.6875 337.042969 C 619.242188 336.464844 618.777344 335.882812 618.300781 335.3125 L 586.480469 341.085938 C 586.882812 343.941406 586.558594 346.652344 585.59375 349.234375 L 623.363281 342.375 " fill-opacity="1" fill-rule="nonzero"/><path fill="#e4ebf2" d="M 610.0625 327.1875 C 608.230469 325.707031 606.246094 324.289062 604.109375 322.953125 L 581.355469 327.082031 C 582.257812 328.78125 583.035156 330.414062 583.695312 331.980469 L 610.0625 327.1875 " fill-opacity="1" fill-rule="nonzero"/><path fill="#418be0" d="M 468.652344 341.375 C 467.652344 341.375 465.761719 339.949219 469.40625 336.503906 C 473.691406 332.449219 481.207031 326.519531 487.191406 316.507812 C 495.925781 301.898438 494.203125 295.488281 494.523438 288.40625 C 494.609375 286.53125 496 285.0625 497.828125 284.636719 C 501.582031 283.757812 510.632812 281.488281 515.730469 281.488281 C 517.777344 281.488281 519.1875 281.855469 519.363281 282.820312 C 521.050781 292.097656 518.285156 306.667969 503.03125 322.609375 C 491.640625 334.519531 475.632812 339.625 468.859375 341.351562 C 468.796875 341.367188 468.726562 341.375 468.652344 341.375 " fill-opacity="1" fill-rule="nonzero"/><path fill="#fe9001" d="M 494.820312 232.132812 C 492.453125 232.5625 491.089844 235.078125 492.019531 237.300781 L 499.292969 254.617188 C 500.664062 257.886719 504.003906 259.777344 507.34375 259.171875 L 516.960938 257.421875 C 520.304688 256.8125 522.765625 253.875 522.898438 250.328125 L 523.609375 231.5625 C 523.699219 229.152344 521.539062 227.28125 519.167969 227.714844 L 494.820312 232.132812 " fill-opacity="1" fill-rule="nonzero"/><path fill="#feac41" d="M 498.265625 244.796875 C 498.074219 244.796875 497.890625 244.6875 497.808594 244.496094 L 494.582031 237.078125 C 494.140625 236.0625 494.8125 234.90625 495.964844 234.691406 L 507.152344 232.664062 C 507.183594 232.660156 507.210938 232.65625 507.242188 232.65625 C 507.535156 232.65625 507.773438 232.914062 507.734375 233.210938 C 507.210938 237.199219 503.363281 242.078125 498.496094 244.738281 C 498.421875 244.777344 498.34375 244.796875 498.265625 244.796875 " fill-opacity="1" fill-rule="nonzero"/><path fill="#ed8100" d="M 501.464844 257.570312 C 503.085938 258.925781 505.214844 259.554688 507.34375 259.171875 L 516.960938 257.421875 C 520.304688 256.8125 522.765625 253.875 522.898438 250.328125 L 523.609375 231.5625 C 522.117188 240.496094 516.859375 254.398438 501.464844 257.570312 " fill-opacity="1" fill-rule="nonzero"/><path fill="#fe9001" d="M 654.984375 213.816406 L 580.210938 233.542969 C 569.886719 236.265625 563.726562 246.835938 566.453125 257.15625 C 569.175781 267.472656 579.753906 273.625 590.078125 270.90625 L 664.851562 251.183594 C 675.175781 248.457031 681.335938 237.886719 678.613281 227.566406 C 675.886719 217.25 665.308594 211.09375 654.984375 213.816406 " fill-opacity="1" fill-rule="nonzero"/><path fill="#ed8100" d="M 666.683594 214.40625 C 673.945312 233.460938 658.167969 244.765625 638.621094 249.867188 C 605.476562 258.503906 585 263.777344 572.65625 266.964844 C 577.308594 270.902344 583.738281 272.578125 590.078125 270.90625 L 664.851562 251.183594 C 675.175781 248.457031 681.335938 237.886719 678.613281 227.566406 C 676.949219 221.269531 672.355469 216.53125 666.683594 214.40625 " fill-opacity="1" fill-rule="nonzero"/><path fill="#feac41" d="M 575.160156 251.578125 C 574.386719 251.578125 573.71875 251.445312 573.183594 251.148438 C 569.40625 249.117188 571.21875 240.941406 576.453125 239.351562 C 586.976562 236.160156 599.046875 233.117188 602.835938 232.394531 C 602.976562 232.363281 603.101562 232.351562 603.210938 232.351562 C 604.351562 232.351562 603.734375 233.765625 602.101562 235.351562 C 594.628906 242.589844 581.4375 251.578125 575.160156 251.578125 " fill-opacity="1" fill-rule="nonzero"/><path fill="#fdd600" d="M 675.320312 248.417969 L 579.609375 273.667969 C 568.875 276.496094 562.464844 287.496094 565.300781 298.222656 C 568.136719 308.953125 579.136719 315.359375 589.871094 312.527344 L 685.585938 287.28125 C 696.320312 284.445312 702.726562 273.449219 699.894531 262.71875 C 697.0625 251.992188 686.058594 245.585938 675.320312 248.417969 " fill-opacity="1" fill-rule="nonzero"/><path fill="#f4c500" d="M 686.300781 248.625 C 690.003906 263.375 684.507812 278.5625 651.292969 287.324219 C 610.964844 297.960938 586.433594 304.769531 571.734375 308.414062 C 576.574219 312.511719 583.273438 314.269531 589.871094 312.527344 L 685.585938 287.28125 C 696.320312 284.445312 702.726562 273.449219 699.894531 262.71875 C 698.050781 255.738281 692.742188 250.585938 686.300781 248.625 " fill-opacity="1" fill-rule="nonzero"/><path fill="#fee24d" d="M 576.15625 291.695312 C 575.371094 291.695312 574.691406 291.578125 574.136719 291.332031 C 569.71875 289.394531 572.25 280.847656 578.5625 278.96875 C 591.265625 275.191406 605.800781 271.496094 610.355469 270.582031 C 610.558594 270.539062 610.726562 270.519531 610.871094 270.519531 C 612.140625 270.519531 611.335938 271.992188 609.347656 273.675781 C 599.972656 281.625 583.5 291.695312 576.15625 291.695312 " fill-opacity="1" fill-rule="nonzero"/><path fill="#76c70e" d="M 696.054688 284.515625 L 579.40625 315.285156 C 568.257812 318.230469 561.601562 329.644531 564.546875 340.789062 C 567.488281 351.933594 578.914062 358.578125 590.066406 355.640625 L 706.710938 324.867188 C 717.859375 321.929688 724.515625 310.511719 721.566406 299.363281 C 718.625 288.222656 707.203125 281.578125 696.054688 284.515625 " fill-opacity="1" fill-rule="nonzero"/><path fill="#6fb708" d="M 705.800781 284.296875 C 713.589844 302.648438 705.035156 315.40625 665.554688 326.050781 C 618 338.867188 588.113281 347.128906 571.171875 351.324219 C 576.203125 355.613281 583.183594 357.453125 590.066406 355.640625 L 706.710938 324.867188 C 717.859375 321.929688 724.515625 310.511719 721.566406 299.363281 C 719.5 291.523438 713.222656 285.914062 705.800781 284.296875 " fill-opacity="1" fill-rule="nonzero"/><path fill="#98d54a" d="M 577.222656 334.082031 C 576.40625 334.082031 575.691406 333.964844 575.109375 333.722656 C 570.285156 331.730469 573.164062 322.667969 580.113281 320.617188 C 594.09375 316.476562 610.085938 312.40625 615.089844 311.386719 C 615.320312 311.339844 615.515625 311.316406 615.679688 311.316406 C 617.042969 311.316406 616.140625 312.871094 613.949219 314.667969 C 603.53125 323.203125 585.234375 334.082031 577.222656 334.082031 " fill-opacity="1" fill-rule="nonzero"/><path fill="#62b5ea" d="M 717.179688 322.105469 L 579.59375 358.398438 C 568.03125 361.449219 561.132812 373.292969 564.183594 384.84375 C 567.238281 396.402344 579.085938 403.296875 590.648438 400.246094 L 728.230469 363.953125 C 739.792969 360.90625 746.691406 349.066406 743.640625 337.507812 C 740.589844 325.953125 728.742188 319.058594 717.179688 322.105469 " fill-opacity="1" fill-rule="nonzero"/><path fill="#4aa8dd" d="M 725.519531 321.570312 C 732.425781 340.464844 721.972656 355.679688 678.230469 367.21875 C 623.113281 381.757812 589.976562 391.003906 570.953125 395.6875 C 576.179688 400.199219 583.464844 402.140625 590.648438 400.246094 L 728.230469 363.953125 C 739.792969 360.90625 746.691406 349.066406 743.640625 337.507812 C 741.332031 328.757812 733.972656 322.683594 725.519531 321.570312 " fill-opacity="1" fill-rule="nonzero"/><path fill="#89c8ef" d="M 577.863281 379.488281 C 576.980469 379.488281 576.214844 379.371094 575.582031 379.121094 C 570.1875 377.003906 573.511719 367.132812 581.332031 364.828125 C 597.070312 360.1875 615.066406 355.605469 620.695312 354.441406 C 620.964844 354.390625 621.1875 354.363281 621.375 354.363281 C 622.875 354.363281 621.847656 356.050781 619.378906 358.019531 C 607.558594 367.429688 586.804688 379.492188 577.863281 379.488281 " fill-opacity="1" fill-rule="nonzero"/><path fill="#0164d6" d="M 738.699219 361.195312 L 580.179688 403.007812 C 568.203125 406.167969 561.058594 418.429688 564.21875 430.398438 C 567.378906 442.371094 579.652344 449.511719 591.625 446.351562 L 750.148438 404.53125 C 762.125 401.375 769.269531 389.109375 766.109375 377.144531 C 762.949219 365.175781 750.675781 358.035156 738.699219 361.195312 " fill-opacity="1" fill-rule="nonzero"/><path fill="#005daa" d="M 766.109375 377.144531 C 763.738281 368.164062 756.234375 361.898438 747.578125 360.667969 C 756.574219 386.488281 742.425781 395.917969 693.292969 409.78125 C 631.984375 427.074219 593.433594 436.304688 571.457031 441.816406 C 576.851562 446.351562 584.292969 448.285156 591.625 446.351562 L 750.148438 404.53125 C 762.125 401.375 769.269531 389.109375 766.109375 377.144531 " fill-opacity="1" fill-rule="nonzero"/><path fill="#418be0" d="M 585.132812 422.988281 L 573.609375 419.019531 C 573.984375 415.292969 577.421875 410.683594 582.738281 409.125 C 599.714844 404.152344 619.117188 399.199219 625.179688 397.929688 C 625.484375 397.867188 625.734375 397.835938 625.941406 397.835938 C 627.511719 397.835938 626.378906 399.574219 623.714844 401.613281 C 613.199219 409.648438 596.214844 419.59375 585.132812 422.988281 " fill-opacity="1" fill-rule="nonzero"/><path fill="#7869c4" d="M 773.863281 446.242188 L 594.402344 493.574219 C 582.015625 496.847656 569.320312 489.457031 566.050781 477.074219 C 562.777344 464.699219 570.171875 452.011719 582.5625 448.742188 L 762.019531 401.402344 C 774.40625 398.136719 787.101562 405.523438 790.371094 417.902344 C 793.640625 430.285156 786.246094 442.972656 773.863281 446.242188 " fill-opacity="1" fill-rule="nonzero"/><path fill="#5e52b2" d="M 767.121094 400.652344 C 775.761719 427.894531 757.371094 439.570312 708.355469 453.164062 C 638.199219 472.625 595.984375 482.914062 573.066406 488.488281 C 578.683594 493.464844 586.601562 495.632812 594.402344 493.574219 L 773.863281 446.242188 C 786.246094 442.972656 793.640625 430.285156 790.371094 417.902344 C 787.550781 407.226562 777.71875 400.265625 767.121094 400.652344 " fill-opacity="1" fill-rule="nonzero"/><path fill="#da040c" d="M 635.042969 180.710938 L 581.207031 194.914062 C 571.292969 197.523438 565.378906 207.675781 567.996094 217.578125 C 570.613281 227.484375 580.765625 233.394531 590.679688 230.777344 L 644.515625 216.578125 C 654.425781 213.96875 660.339844 203.816406 657.722656 193.910156 C 655.109375 184.007812 644.953125 178.097656 635.042969 180.710938 " fill-opacity="1" fill-rule="nonzero"/><path fill="#e34349" d="M 576.828125 211.238281 C 576 211.238281 575.300781 211.050781 574.765625 210.652344 C 572.019531 208.585938 573.210938 201.105469 577.710938 199.773438 C 586.523438 197.171875 596.949219 194.652344 600.210938 194.109375 C 600.3125 194.097656 600.402344 194.085938 600.484375 194.085938 C 601.535156 194.085938 601.015625 195.414062 599.59375 196.863281 C 593.359375 203.234375 582.289062 211.238281 576.828125 211.238281 " fill-opacity="1" fill-rule="nonzero"/><path fill="#c60513" d="M 647.796875 181.917969 C 652.355469 194.304688 647.714844 206.546875 628.0625 212.628906 C 602.496094 220.546875 584.027344 224.375 574 227.042969 C 578.464844 230.785156 584.613281 232.378906 590.679688 230.777344 L 644.515625 216.578125 C 654.425781 213.96875 660.339844 203.816406 657.722656 193.910156 C 656.277344 188.441406 652.53125 184.1875 647.796875 181.917969 " fill-opacity="1" fill-rule="nonzero"/><path fill="#fdd600" d="M 628.046875 182.554688 C 631.753906 176.152344 633.023438 168.339844 630.984375 160.625 C 626.890625 145.121094 610.996094 135.875 595.484375 139.960938 C 579.972656 144.050781 570.71875 159.9375 574.8125 175.441406 C 576.851562 183.15625 581.8125 189.324219 588.199219 193.066406 L 628.046875 182.554688 " fill-opacity="1" fill-rule="nonzero"/><path fill="#fee24d" d="M 587.136719 169.246094 C 583.878906 169.246094 580.675781 167.367188 579.507812 163.90625 C 579.382812 163.539062 579.289062 163.179688 579.234375 162.824219 C 578.226562 156.511719 581.980469 150.203125 587.972656 147.984375 C 588.832031 147.675781 589.699219 147.53125 590.539062 147.53125 C 595.230469 147.53125 599.238281 151.953125 598.089844 156.914062 C 597.355469 160.082031 595.921875 163.351562 593.378906 166.367188 C 591.726562 168.324219 589.417969 169.246094 587.136719 169.246094 " fill-opacity="1" fill-rule="nonzero"/><path fill="#edbf00" d="M 630.984375 160.625 C 628.75 152.15625 622.988281 145.558594 615.695312 141.980469 C 624.90625 167.039062 613.800781 186.316406 588.414062 193.007812 L 628.046875 182.554688 C 631.753906 176.152344 633.023438 168.339844 630.984375 160.625 " fill-opacity="1" fill-rule="nonzero"/><path fill="#ffdd4d" d="M 936.53125 449.621094 C 934.15625 449.054688 932.414062 446.890625 932.460938 444.351562 L 936.78125 229.484375 C 936.839844 226.558594 939.269531 224.222656 942.199219 224.28125 C 945.136719 224.34375 947.472656 226.765625 947.40625 229.703125 L 943.085938 444.5625 C 943.027344 447.496094 940.605469 449.824219 937.667969 449.765625 C 937.277344 449.757812 936.898438 449.707031 936.53125 449.621094 " fill-opacity="1" fill-rule="nonzero"/><path fill="#fcd42d" d="M 943.085938 444.5625 L 947.40625 229.703125 C 947.449219 227.597656 946.269531 225.769531 944.515625 224.875 C 944.933594 225.648438 945.164062 226.539062 945.144531 227.484375 L 940.824219 442.351562 C 940.769531 445.28125 938.339844 447.609375 935.40625 447.546875 C 935.015625 447.542969 934.632812 447.492188 934.273438 447.402344 C 933.847656 447.300781 933.457031 447.140625 933.082031 446.941406 C 933.785156 448.265625 935.03125 449.261719 936.53125 449.621094 C 936.898438 449.707031 937.277344 449.757812 937.667969 449.765625 C 940.605469 449.824219 943.027344 447.496094 943.085938 444.5625 " fill-opacity="1" fill-rule="nonzero"/><path fill="#ffdd4d" d="M 956.226562 232.980469 C 954.355469 240.78125 946.511719 245.585938 938.707031 243.714844 C 930.898438 241.84375 926.089844 234.003906 927.960938 226.207031 C 929.832031 218.40625 937.675781 213.597656 945.488281 215.464844 C 953.292969 217.335938 958.101562 225.183594 956.226562 232.980469 " fill-opacity="1" fill-rule="nonzero"/><path fill="#fcd42d" d="M 952.894531 219.875 C 954.269531 222.765625 954.707031 226.128906 953.898438 229.488281 C 952.027344 237.289062 944.183594 242.09375 936.378906 240.222656 C 933.40625 239.511719 930.871094 237.929688 928.96875 235.8125 C 930.792969 239.644531 934.257812 242.652344 938.707031 243.714844 C 946.511719 245.589844 954.355469 240.78125 956.226562 232.980469 C 957.386719 228.152344 955.980469 223.3125 952.894531 219.875 " fill-opacity="1" fill-rule="nonzero"/><path fill="#ffe783" d="M 934.09375 228.105469 C 932.855469 228.105469 931.8125 227.597656 931.234375 226.386719 C 929.15625 222.015625 935.609375 217.707031 939.597656 217.707031 C 940.484375 217.707031 941.242188 217.917969 941.769531 218.390625 C 945.359375 221.636719 938.515625 228.105469 934.09375 228.105469 " fill-opacity="1" fill-rule="nonzero"/><path fill="#da040c" d="M 783.132812 389.667969 C 783.132812 389.667969 765.820312 392.316406 752.242188 411.910156 C 740.664062 428.617188 731.703125 467.15625 749.980469 469.324219 C 765.113281 471.121094 768.933594 444.820312 771.355469 439.066406 C 775.402344 429.464844 784.628906 418.574219 800.585938 418.523438 L 783.132812 389.667969 " fill-opacity="1" fill-rule="nonzero"/><path fill="#c60513" d="M 783.132812 389.667969 C 783.132812 389.667969 782.417969 389.777344 781.179688 390.113281 L 796.015625 414.640625 C 780.066406 414.695312 770.828125 425.585938 766.789062 435.183594 C 764.363281 440.941406 760.546875 467.242188 745.414062 465.445312 C 744.320312 465.3125 743.328125 465.054688 742.425781 464.671875 C 744.097656 467.242188 746.5625 468.921875 749.980469 469.324219 C 765.113281 471.121094 768.933594 444.820312 771.355469 439.066406 C 775.402344 429.464844 784.628906 418.574219 800.585938 418.523438 L 783.132812 389.667969 " fill-opacity="1" fill-rule="nonzero"/><path fill="#e34349" d="M 757.132812 418.746094 C 756.808594 418.746094 756.652344 418.382812 756.644531 417.53125 C 756.585938 410.328125 771.53125 397.144531 775.113281 397.144531 C 775.214844 397.144531 775.304688 397.15625 775.386719 397.175781 C 778.398438 397.9375 784.234375 407.394531 779.960938 407.71875 C 765.269531 408.828125 758.84375 418.746094 757.132812 418.746094 " fill-opacity="1" fill-rule="nonzero"/><path fill="#da040c" d="M 866.980469 399.3125 C 866.980469 399.3125 883.234375 405.824219 892.007812 427.988281 C 899.484375 446.890625 899.441406 486.453125 881.152344 484.421875 C 866.003906 482.730469 868.265625 456.253906 867.214844 450.097656 C 865.460938 439.828125 858.949219 427.125 843.421875 423.453125 L 866.980469 399.3125 " fill-opacity="1" fill-rule="nonzero"/><path fill="#c60513" d="M 892.007812 427.988281 C 885.476562 411.492188 874.804688 403.667969 869.769531 400.746094 C 875.070312 405.074219 881.742188 412.394531 886.347656 424.042969 C 893.824219 442.9375 893.78125 482.507812 875.492188 480.464844 C 874.726562 480.378906 874.015625 480.214844 873.332031 480.007812 C 875.214844 482.390625 877.738281 484.039062 881.152344 484.421875 C 899.441406 486.453125 899.484375 446.890625 892.007812 427.988281 " fill-opacity="1" fill-rule="nonzero"/><path fill="#fbb03b" d="M 893.945312 231.695312 C 878.488281 180.839844 862.121094 172.667969 852.914062 171.609375 C 843.714844 170.550781 825.910156 174.792969 799.292969 220.808594 C 772.675781 266.824219 773.847656 297.15625 772.527344 325.949219 C 771.210938 354.742188 779.757812 391.585938 792.5625 415.707031 C 805.363281 439.835938 816.035156 445.46875 821.292969 446.074219 C 826.554688 446.679688 838.226562 443.613281 856.183594 423.03125 C 874.140625 402.445312 890.835938 368.503906 896.101562 340.167969 C 901.367188 311.828125 909.402344 282.550781 893.945312 231.695312 " fill-opacity="1" fill-rule="nonzero"/><path fill="#f29c2a" d="M 893.945312 231.695312 C 888.214844 212.84375 882.359375 199.859375 876.789062 190.925781 C 879.253906 196.984375 881.726562 203.96875 884.175781 212.035156 C 899.628906 262.890625 891.59375 292.160156 886.332031 320.5 C 881.070312 348.835938 864.367188 382.777344 846.414062 403.363281 C 828.460938 423.945312 816.785156 427.007812 811.523438 426.402344 C 806.789062 425.859375 797.671875 421.234375 786.5625 402.734375 C 788.425781 407.339844 790.433594 411.703125 792.5625 415.707031 C 805.363281 439.835938 816.035156 445.46875 821.292969 446.074219 C 826.554688 446.679688 838.226562 443.613281 856.183594 423.03125 C 874.140625 402.445312 890.835938 368.503906 896.101562 340.167969 C 901.367188 311.828125 909.402344 282.550781 893.945312 231.695312 " fill-opacity="1" fill-rule="nonzero"/><path fill="#fcc46c" d="M 804.628906 245.054688 C 803.035156 245.054688 801.746094 244.484375 800.878906 243.230469 C 793.125 232.003906 829.691406 182.550781 842.535156 182.550781 C 843.574219 182.550781 844.453125 182.871094 845.148438 183.5625 C 859.328125 197.773438 819.132812 245.066406 804.628906 245.054688 " fill-opacity="1" fill-rule="nonzero"/><path fill="#fdd600" d="M 852.914062 171.609375 C 857.007812 172.078125 862.519531 173.960938 868.742188 180.375 C 867.394531 177.09375 864.023438 168.878906 862.644531 165.707031 C 861.621094 163.375 859.335938 158.503906 854.304688 157.925781 C 849.273438 157.34375 845.886719 161.550781 844.417969 163.613281 C 842.554688 166.214844 838.390625 172.632812 836.109375 176.171875 C 843.335938 171.691406 848.933594 171.152344 852.914062 171.609375 " fill-opacity="1" fill-rule="nonzero"/><path fill="#f4c500" d="M 862.378906 175.105469 C 864.386719 176.378906 866.519531 178.085938 868.742188 180.375 C 867.394531 177.09375 864.023438 168.878906 862.644531 165.707031 C 861.921875 164.0625 860.574219 161.15625 858.070312 159.378906 C 861.34375 169.132812 861.863281 171.78125 862.378906 175.105469 " fill-opacity="1" fill-rule="nonzero"/><path fill="#fee24d" d="M 845.179688 168.0625 C 844.90625 168.0625 844.683594 167.992188 844.527344 167.835938 C 843.140625 166.445312 848.84375 160.398438 851.007812 160.398438 C 851.1875 160.398438 851.34375 160.441406 851.472656 160.535156 C 853.957031 162.324219 847.621094 168.0625 845.179688 168.0625 " fill-opacity="1" fill-rule="nonzero"/><path fill="#da040c" d="M 880.214844 377.835938 L 779.308594 366.226562 C 773.953125 365.613281 769.113281 369.457031 768.492188 374.808594 C 767.875 380.160156 771.71875 385 777.074219 385.613281 L 877.980469 397.222656 C 883.335938 397.84375 888.175781 394 888.792969 388.648438 C 889.410156 383.296875 885.570312 378.457031 880.214844 377.835938 " fill-opacity="1" fill-rule="nonzero"/><path fill="#c60513" d="M 883.722656 378.945312 C 883.925781 379.945312 883.988281 380.996094 883.871094 382.070312 C 883.253906 387.421875 878.410156 391.257812 873.050781 390.644531 L 772.148438 379.035156 C 770.882812 378.886719 769.703125 378.503906 768.644531 377.929688 C 769.480469 381.925781 772.792969 385.125 777.074219 385.613281 L 877.980469 397.222656 C 883.335938 397.84375 888.175781 394 888.792969 388.648438 C 889.265625 384.558594 887.132812 380.785156 883.722656 378.945312 " fill-opacity="1" fill-rule="nonzero"/><path fill="#e34349" d="M 780.472656 375.585938 C 779.9375 375.585938 779.445312 375.5625 778.996094 375.507812 C 776.28125 375.164062 774.261719 373.332031 774.492188 371.355469 C 774.699219 369.566406 776.664062 368.285156 779.042969 368.285156 C 779.300781 368.285156 779.558594 368.300781 779.824219 368.335938 L 799.296875 370.578125 C 801.828125 370.863281 787.664062 375.585938 780.472656 375.585938 " fill-opacity="1" fill-rule="nonzero"/><path fill="#da040c" d="M 819.441406 477.316406 C 813.085938 476.585938 808.523438 470.84375 809.253906 464.492188 L 815.277344 412.203125 C 816.011719 405.847656 821.757812 401.296875 828.113281 402.027344 C 834.472656 402.757812 839.03125 408.5 838.300781 414.851562 L 832.273438 467.140625 C 831.542969 473.492188 825.796875 478.046875 819.441406 477.316406 " fill-opacity="1" fill-rule="nonzero"/><path fill="#c60513" d="M 833.921875 404.417969 C 834.769531 406.273438 835.148438 408.363281 834.898438 410.535156 L 828.871094 462.816406 C 828.140625 469.175781 822.394531 473.730469 816.039062 473 C 813.835938 472.742188 811.859375 471.878906 810.230469 470.609375 C 811.863281 474.175781 815.253906 476.835938 819.441406 477.316406 C 825.796875 478.046875 831.542969 473.492188 832.273438 467.140625 L 838.300781 414.851562 C 838.78125 410.703125 836.984375 406.820312 833.921875 404.417969 " fill-opacity="1" fill-rule="nonzero"/><path fill="#e34349" d="M 818.816406 412.777344 C 819.472656 410.753906 821.320312 409.355469 823.398438 409.355469 C 823.574219 409.355469 823.753906 409.367188 823.929688 409.386719 C 825.050781 409.515625 826.027344 410.03125 826.757812 410.796875 L 818.816406 412.777344 " fill-opacity="1" fill-rule="nonzero"/><path fill="#da040c" d="M 871.546875 274.371094 C 869.683594 290.542969 855.050781 302.148438 838.867188 300.289062 C 822.679688 298.425781 811.070312 283.800781 812.929688 267.625 C 814.796875 251.453125 829.425781 239.847656 845.613281 241.707031 C 861.800781 243.570312 873.410156 258.195312 871.546875 274.371094 " fill-opacity="1" fill-rule="nonzero"/><path fill="#44cccc" d="M 864.300781 273.535156 C 862.894531 285.710938 851.882812 294.445312 839.699219 293.042969 C 827.515625 291.640625 818.777344 280.632812 820.183594 268.460938 C 821.582031 256.285156 832.597656 247.554688 844.78125 248.957031 C 856.960938 250.355469 865.699219 261.363281 864.300781 273.535156 " fill-opacity="1" fill-rule="nonzero"/><path fill="#31bcb8" d="M 855.847656 253.460938 C 858.167969 257.449219 859.265625 262.191406 858.699219 267.128906 C 857.292969 279.300781 846.28125 288.035156 834.097656 286.636719 C 829.914062 286.15625 826.128906 284.535156 823.03125 282.125 C 826.425781 287.976562 832.457031 292.210938 839.699219 293.042969 C 851.882812 294.445312 862.894531 285.710938 864.300781 273.535156 C 865.21875 265.546875 861.773438 258.058594 855.847656 253.460938 " fill-opacity="1" fill-rule="nonzero"/><path fill="#73d9d9" d="M 831.457031 268.515625 C 830.191406 268.515625 828.972656 268.089844 827.90625 267.121094 C 822.074219 261.800781 831.894531 251.515625 838.796875 251.515625 C 840.3125 251.515625 841.683594 252.011719 842.71875 253.164062 C 846.199219 257.03125 838.085938 268.515625 831.457031 268.515625 " fill-opacity="1" fill-rule="nonzero"/><path fill="#ffdd4d" d="M 908.496094 466.582031 C 906.421875 465.289062 905.460938 462.6875 906.324219 460.292969 L 978.925781 258.007812 C 979.917969 255.242188 982.960938 253.808594 985.722656 254.800781 C 988.484375 255.789062 989.921875 258.828125 988.929688 261.589844 L 916.324219 463.878906 C 915.328125 466.640625 912.289062 468.074219 909.527344 467.082031 C 909.164062 466.953125 908.816406 466.785156 908.496094 466.582031 " fill-opacity="1" fill-rule="nonzero"/><path fill="#fcd42d" d="M 916.324219 463.878906 L 988.929688 261.589844 C 989.636719 259.617188 989.097656 257.5 987.726562 256.09375 C 987.875 256.964844 987.808594 257.882812 987.492188 258.769531 L 914.886719 461.058594 C 913.898438 463.816406 910.851562 465.253906 908.089844 464.265625 C 907.722656 464.128906 907.375 463.960938 907.058594 463.765625 C 906.691406 463.53125 906.375 463.25 906.082031 462.945312 C 906.328125 464.429688 907.1875 465.765625 908.496094 466.582031 C 908.816406 466.785156 909.164062 466.953125 909.527344 467.082031 C 912.289062 468.074219 915.335938 466.640625 916.324219 463.878906 " fill-opacity="1" fill-rule="nonzero"/><path fill="#ffdd4d" d="M 996.246094 267.511719 C 991.980469 274.308594 983.011719 276.363281 976.207031 272.105469 C 969.410156 267.847656 967.347656 258.882812 971.613281 252.085938 C 975.871094 245.289062 984.839844 243.230469 991.644531 247.488281 C 998.445312 251.746094 1000.503906 260.710938 996.246094 267.511719 " fill-opacity="1" fill-rule="nonzero"/><path fill="#fcd42d" d="M 997.261719 254.023438 C 997.640625 257.203125 996.984375 260.53125 995.152344 263.457031 C 990.890625 270.253906 981.921875 272.3125 975.117188 268.054688 C 972.527344 266.433594 970.628906 264.125 969.5 261.519531 C 970.003906 265.726562 972.332031 269.679688 976.207031 272.105469 C 983.011719 276.363281 991.980469 274.308594 996.246094 267.511719 C 998.882812 263.300781 999.09375 258.265625 997.261719 254.023438 " fill-opacity="1" fill-rule="nonzero"/><path fill="#ffe783" d="M 978.800781 256.125 C 976.65625 256.125 974.894531 255.308594 974.652344 253.300781 C 974.1875 249.433594 978.949219 247.363281 982.796875 247.363281 C 984.792969 247.363281 986.539062 247.921875 987.1875 249.074219 C 989.226562 252.703125 983.199219 256.132812 978.800781 256.125 " fill-opacity="1" fill-rule="nonzero"/><path fill="#fcd42d" d="M 1036.675781 391.410156 C 1041.867188 366.449219 1056.011719 345.632812 1056.011719 345.632812 L 1031.589844 337.273438 C 1031.589844 337.273438 1029.75 362.242188 1018.335938 385.042969 C 1006.925781 407.84375 992.015625 424.566406 1012.402344 431.648438 C 1032.792969 438.730469 1031.480469 416.371094 1036.675781 391.410156 " fill-opacity="1" fill-rule="nonzero"/><path fill="#76c70e" d="M 1082.929688 228.929688 C 1067.152344 223.449219 1042.675781 231.417969 1033.050781 261.40625 C 1023.425781 291.402344 1033.125 322.058594 1031.589844 337.273438 L 1056.007812 345.632812 C 1063.523438 333.765625 1090.839844 314.820312 1101.90625 285.320312 C 1112.964844 255.820312 1098.710938 234.40625 1082.929688 228.929688 " fill-opacity="1" fill-rule="nonzero"/><path fill="#f2c611" d="M 1056.011719 345.632812 L 1048.160156 342.949219 C 1043.738281 350.457031 1035.449219 366.191406 1031.730469 384.042969 C 1026.539062 409.003906 1027.851562 431.363281 1007.460938 424.285156 C 1005.4375 423.574219 1003.761719 422.773438 1002.386719 421.882812 C 1002.921875 426.0625 1005.816406 429.359375 1012.402344 431.648438 C 1032.792969 438.730469 1031.480469 416.371094 1036.675781 391.410156 C 1041.867188 366.449219 1056.011719 345.632812 1056.011719 345.632812 " fill-opacity="1" fill-rule="nonzero"/><path fill="#6fb708" d="M 1096.382812 238.304688 C 1101.503906 248.296875 1102.976562 261.925781 1096.964844 277.949219 C 1085.90625 307.449219 1058.585938 326.390625 1051.066406 338.261719 C 1051.066406 338.261719 1049.925781 339.957031 1048.160156 342.945312 L 1056.011719 345.632812 C 1063.527344 333.761719 1090.84375 314.816406 1101.90625 285.320312 C 1109.558594 264.910156 1105.089844 248.371094 1096.382812 238.304688 " fill-opacity="1" fill-rule="nonzero"/><path fill="#fca100" d="M 1042.144531 243.625 L 1105.808594 265.425781 C 1105.828125 263.664062 1105.75 261.953125 1105.585938 260.300781 L 1045.480469 239.722656 C 1044.328125 240.921875 1043.21875 242.230469 1042.144531 243.625 " fill-opacity="1" fill-rule="nonzero"/><path fill="#fca100" d="M 1033.9375 258.84375 L 1102.90625 282.453125 C 1103.953125 279.242188 1104.679688 276.132812 1105.160156 273.132812 L 1037.90625 250.113281 C 1036.433594 252.769531 1035.097656 255.667969 1033.9375 258.84375 " fill-opacity="1" fill-rule="nonzero"/><path fill="#fca100" d="M 1030.660156 270.703125 L 1098.144531 293.808594 C 1098.871094 292.390625 1099.550781 290.941406 1100.203125 289.464844 L 1031.734375 266.027344 C 1031.332031 267.589844 1030.976562 269.148438 1030.660156 270.703125 " fill-opacity="1" fill-rule="nonzero"/><path fill="#fca100" d="M 1029.046875 301.164062 L 1080.597656 318.8125 C 1081.714844 317.550781 1082.832031 316.25 1083.941406 314.914062 L 1028.808594 296.042969 C 1028.867188 297.769531 1028.941406 299.480469 1029.046875 301.164062 " fill-opacity="1" fill-rule="nonzero"/><path fill="#fca100" d="M 1028.800781 288.09375 L 1088.871094 308.660156 C 1090.800781 306.046875 1092.667969 303.320312 1094.421875 300.46875 L 1029.476562 278.234375 C 1029.09375 281.558594 1028.882812 284.855469 1028.800781 288.09375 " fill-opacity="1" fill-rule="nonzero"/><path fill="#ea9103" d="M 1100.859375 258.679688 C 1100.832031 260.285156 1100.722656 261.925781 1100.523438 263.613281 L 1105.808594 265.425781 C 1105.828125 263.746094 1105.75 262.113281 1105.597656 260.53125 C 1105.589844 260.457031 1105.585938 260.375 1105.578125 260.296875 L 1100.859375 258.679688 " fill-opacity="1" fill-rule="nonzero"/><path fill="#ea9103" d="M 1096.105469 280.121094 L 1102.902344 282.453125 C 1102.929688 282.378906 1102.949219 282.304688 1102.976562 282.230469 C 1103.203125 281.519531 1103.421875 280.808594 1103.617188 280.109375 L 1103.636719 280.050781 C 1104.304688 277.6875 1104.804688 275.382812 1105.160156 273.132812 L 1099.117188 271.066406 C 1098.546875 273.308594 1097.847656 275.605469 1096.964844 277.949219 C 1096.6875 278.683594 1096.394531 279.40625 1096.105469 280.121094 " fill-opacity="1" fill-rule="nonzero"/><path fill="#ea9103" d="M 1092.925781 286.976562 C 1092.1875 288.421875 1091.410156 289.839844 1090.601562 291.226562 L 1098.152344 293.808594 L 1098.152344 293.800781 C 1098.484375 293.148438 1098.808594 292.492188 1099.121094 291.824219 C 1099.15625 291.75 1099.199219 291.671875 1099.230469 291.59375 C 1099.5625 290.890625 1099.882812 290.183594 1100.195312 289.46875 L 1100.203125 289.464844 L 1092.925781 286.976562 " fill-opacity="1" fill-rule="nonzero"/><path fill="#ea9103" d="M 1075.21875 311.925781 C 1074.039062 313.238281 1072.875 314.519531 1071.707031 315.765625 L 1080.59375 318.808594 C 1081.308594 318 1082.023438 317.183594 1082.734375 316.347656 C 1082.808594 316.257812 1082.878906 316.175781 1082.953125 316.089844 C 1083.28125 315.699219 1083.609375 315.308594 1083.941406 314.90625 L 1075.21875 311.925781 " fill-opacity="1" fill-rule="nonzero"/><path fill="#ea9103" d="M 1086.453125 297.746094 C 1084.53125 300.546875 1082.515625 303.222656 1080.445312 305.777344 L 1088.863281 308.660156 C 1088.925781 308.578125 1088.984375 308.496094 1089.046875 308.417969 C 1089.386719 307.949219 1089.730469 307.480469 1090.066406 307.007812 C 1090.222656 306.785156 1090.382812 306.5625 1090.542969 306.339844 C 1090.875 305.863281 1091.210938 305.386719 1091.539062 304.902344 C 1091.695312 304.671875 1091.855469 304.4375 1092.019531 304.203125 C 1092.335938 303.71875 1092.65625 303.234375 1092.980469 302.742188 C 1093.128906 302.511719 1093.277344 302.28125 1093.425781 302.050781 C 1093.75 301.539062 1094.074219 301.027344 1094.390625 300.511719 L 1094.421875 300.46875 L 1086.453125 297.746094 " fill-opacity="1" fill-rule="nonzero"/><path fill="#98d54a" d="M 1051.511719 272.792969 L 1039.886719 268.816406 C 1038.984375 266.332031 1038.875 263.570312 1039.378906 260.699219 L 1059.515625 267.59375 C 1056.832031 269.851562 1054.085938 271.667969 1051.511719 272.792969 M 1066.902344 260.03125 L 1042.652344 251.730469 C 1043.863281 249.492188 1045.328125 247.3125 1046.949219 245.269531 L 1071.351562 253.621094 C 1070.085938 255.796875 1068.570312 257.96875 1066.902344 260.03125 M 1073.507812 249.3125 L 1050.390625 241.398438 C 1055.550781 236.210938 1061.585938 232.625 1066.507812 232.625 C 1067.835938 232.625 1069.089844 232.890625 1070.226562 233.460938 C 1076.101562 236.429688 1076.285156 242.628906 1073.507812 249.3125 " fill-opacity="1" fill-rule="nonzero"/><path fill="#fdb940" d="M 1071.347656 253.617188 L 1046.953125 245.269531 C 1048.03125 243.910156 1049.1875 242.613281 1050.390625 241.402344 L 1073.503906 249.3125 C 1072.910156 250.738281 1072.179688 252.183594 1071.347656 253.617188 " fill-opacity="1" fill-rule="nonzero"/><path fill="#fdb940" d="M 1059.511719 267.597656 L 1039.375 260.707031 C 1039.886719 257.757812 1041.042969 254.699219 1042.644531 251.738281 L 1066.898438 260.035156 C 1064.648438 262.824219 1062.109375 265.414062 1059.511719 267.597656 " fill-opacity="1" fill-rule="nonzero"/><path fill="#fdb940" d="M 1046.300781 274.066406 C 1044.226562 274.066406 1042.476562 273.285156 1041.265625 271.507812 C 1040.679688 270.660156 1040.222656 269.757812 1039.882812 268.816406 L 1051.507812 272.796875 C 1049.644531 273.617188 1047.878906 274.066406 1046.300781 274.066406 " fill-opacity="1" fill-rule="nonzero"/><g clip-path="url(#ae5712fd18)"><path fill="#e6a352" d="M 665.957031 450.851562 L 380.828125 352.5625 L 380.828125 672.445312 L 665.957031 783.011719 L 665.957031 450.851562 " fill-opacity="1" fill-rule="nonzero"/></g><path fill="#d6974d" d="M 620.421875 610.238281 L 380.828125 512.238281 L 380.828125 492.703125 L 393.757812 469.257812 L 665.957031 450.851562 L 620.421875 610.238281 " fill-opacity="1" fill-rule="nonzero"/><g clip-path="url(#f141aaed04)"><path fill="#d69440" d="M 665.957031 450.851562 L 1057.554688 353.308594 L 1057.554688 672.445312 L 665.957031 783.011719 L 665.957031 450.851562 " fill-opacity="1" fill-rule="nonzero"/></g><path fill="#c88a3e" d="M 733.878906 645.644531 L 665.957031 450.851562 L 1052.917969 505.957031 L 1057.554688 526.144531 L 1057.554688 545.113281 L 733.878906 645.644531 " fill-opacity="1" fill-rule="nonzero"/><path fill="#f2bc81" d="M 665.957031 450.695312 L 614.976562 585.957031 L 321.953125 469.257812 L 380.828125 352.5625 L 665.957031 450.695312 " fill-opacity="1" fill-rule="nonzero"/><path fill="#edb46f" d="M 665.957031 450.851562 L 740.359375 619.640625 L 1123.890625 506.597656 L 1057.554688 353.308594 L 665.957031 450.851562 " fill-opacity="1" fill-rule="nonzero"/></svg>