<svg xmlns="http://www.w3.org/2000/svg" xmlns:xlink="http://www.w3.org/1999/xlink" width="1920" zoomAndPan="magnify" viewBox="0 0 1440 809.999993" height="1080" preserveAspectRatio="xMidYMid meet" version="1.0"><defs><clipPath id="0b79279be8"><path d="M 395 327 L 1065.46875 327 L 1065.46875 786 L 395 786 Z M 395 327 " clip-rule="nonzero"/></clipPath><clipPath id="c49e965a84"><path d="M 548 213 L 934 213 L 934 647 L 548 647 Z M 548 213 " clip-rule="nonzero"/></clipPath><clipPath id="580edc6c58"><path d="M 888.535156 365.289062 L 831.75 344.84375 C 841.597656 437.683594 843.855469 535.792969 841.03125 637.5 C 746.785156 650.023438 655.074219 647.382812 553.433594 643.351562 C 550.597656 627.011719 548.875 603.296875 548.082031 575.269531 C 581.171875 587.957031 633.335938 593.21875 708.074219 561.351562 C 806.519531 519.402344 792.742188 293.980469 782.8125 213.878906 L 828.132812 224.546875 C 864.027344 237.132812 899.144531 251.574219 933.605469 267.613281 Z M 888.535156 365.289062 " clip-rule="nonzero"/></clipPath></defs><g clip-path="url(#0b79279be8)"><path fill="#1dd3b0" d="M 1035.382812 328.152344 C 1034.785156 328.269531 1034.195312 328.414062 1033.613281 328.585938 C 1033.027344 328.757812 1032.457031 328.957031 1031.894531 329.1875 C 1031.328125 329.417969 1030.78125 329.671875 1030.242188 329.957031 C 1029.703125 330.238281 1029.179688 330.546875 1028.671875 330.882812 C 1028.164062 331.21875 1027.675781 331.574219 1027.203125 331.957031 C 1026.730469 332.339844 1026.277344 332.746094 1025.847656 333.171875 C 1025.414062 333.601562 1025.003906 334.046875 1024.613281 334.515625 C 1024.226562 334.980469 1023.859375 335.46875 1023.519531 335.972656 C 1023.179688 336.472656 1022.863281 336.992188 1022.574219 337.527344 C 1022.285156 338.0625 1022.019531 338.609375 1021.785156 339.167969 C 1021.546875 339.730469 1021.339844 340.300781 1021.160156 340.878906 C 1020.980469 341.460938 1020.828125 342.050781 1020.703125 342.644531 C 1020.582031 343.242188 1020.488281 343.839844 1020.425781 344.445312 C 1020.363281 345.050781 1020.328125 345.65625 1020.324219 346.265625 C 1020.320312 346.871094 1020.347656 347.480469 1020.402344 348.085938 C 1020.457031 348.691406 1020.542969 349.292969 1020.65625 349.886719 C 1025.503906 374.640625 1028.011719 399.628906 1028.183594 424.851562 C 1028.410156 498.613281 1006.386719 563.394531 962.738281 617.367188 C 941.546875 643.566406 915.304688 666.878906 884.8125 686.707031 C 854.042969 706.675781 818.820312 723.148438 779.988281 735.671875 C 725.046875 753.425781 659.21875 752.804688 594.628906 733.9375 C 542.433594 718.703125 493.574219 692.417969 453.917969 658.636719 L 509.488281 649.984375 C 510.082031 649.882812 510.675781 649.757812 511.257812 649.601562 C 511.84375 649.445312 512.417969 649.261719 512.984375 649.050781 C 513.550781 648.839844 514.105469 648.601562 514.648438 648.332031 C 515.191406 648.066406 515.722656 647.777344 516.234375 647.457031 C 516.75 647.140625 517.25 646.796875 517.730469 646.429688 C 518.210938 646.066406 518.671875 645.675781 519.117188 645.261719 C 519.558594 644.851562 519.980469 644.417969 520.382812 643.964844 C 520.78125 643.511719 521.160156 643.042969 521.515625 642.550781 C 521.871094 642.0625 522.199219 641.554688 522.503906 641.035156 C 522.8125 640.511719 523.089844 639.976562 523.34375 639.425781 C 523.597656 638.875 523.820312 638.316406 524.019531 637.746094 C 524.21875 637.171875 524.386719 636.59375 524.53125 636.003906 C 524.671875 635.417969 524.785156 634.824219 524.867188 634.222656 C 524.949219 633.625 525.003906 633.023438 525.03125 632.417969 C 525.054688 631.8125 525.050781 631.207031 525.015625 630.605469 C 524.980469 630 524.917969 629.398438 524.824219 628.800781 C 524.730469 628.203125 524.609375 627.613281 524.457031 627.027344 C 524.308594 626.441406 524.128906 625.863281 523.921875 625.296875 C 523.714844 624.726562 523.480469 624.167969 523.21875 623.625 C 522.957031 623.078125 522.667969 622.546875 522.355469 622.03125 C 522.039062 621.511719 521.703125 621.011719 521.339844 620.527344 C 520.976562 620.042969 520.589844 619.578125 520.183594 619.132812 C 519.777344 618.683594 519.347656 618.257812 518.898438 617.855469 C 518.449219 617.449219 517.980469 617.070312 517.492188 616.710938 C 517.003906 616.351562 516.5 616.015625 515.980469 615.707031 C 515.460938 615.398438 514.929688 615.113281 514.382812 614.855469 C 513.835938 614.597656 513.277344 614.367188 512.707031 614.167969 C 512.136719 613.964844 511.558594 613.789062 510.972656 613.640625 C 510.382812 613.496094 509.792969 613.378906 509.195312 613.289062 C 508.59375 613.203125 507.992188 613.144531 507.390625 613.113281 C 506.785156 613.085938 506.183594 613.085938 505.578125 613.113281 C 504.972656 613.144531 504.371094 613.203125 503.773438 613.289062 L 411.230469 627.730469 C 410.089844 627.910156 408.980469 628.191406 407.894531 628.574219 C 406.808594 628.957031 405.769531 629.4375 404.773438 630.015625 C 403.777344 630.59375 402.84375 631.257812 401.972656 632.007812 C 401.101562 632.761719 400.304688 633.585938 399.585938 634.484375 C 398.867188 635.382812 398.238281 636.339844 397.699219 637.359375 C 397.15625 638.375 396.714844 639.433594 396.371094 640.53125 C 396.027344 641.628906 395.789062 642.75 395.652344 643.894531 C 395.515625 645.035156 395.488281 646.183594 395.566406 647.332031 L 401.753906 736.859375 C 401.792969 737.464844 401.867188 738.070312 401.964844 738.667969 C 402.066406 739.269531 402.195312 739.863281 402.355469 740.449219 C 402.515625 741.035156 402.703125 741.613281 402.917969 742.183594 C 403.136719 742.753906 403.378906 743.308594 403.648438 743.855469 C 403.917969 744.398438 404.214844 744.929688 404.539062 745.445312 C 404.863281 745.960938 405.210938 746.457031 405.582031 746.941406 C 405.953125 747.421875 406.347656 747.882812 406.765625 748.324219 C 407.179688 748.769531 407.621094 749.191406 408.078125 749.589844 C 408.535156 749.988281 409.011719 750.367188 409.507812 750.71875 C 410.003906 751.070312 410.515625 751.398438 411.042969 751.699219 C 411.570312 752.003906 412.113281 752.28125 412.667969 752.527344 C 413.222656 752.777344 413.789062 753 414.363281 753.191406 C 414.941406 753.386719 415.527344 753.550781 416.117188 753.6875 C 416.710938 753.824219 417.308594 753.929688 417.914062 754.007812 C 418.515625 754.085938 419.121094 754.132812 419.730469 754.152344 C 420.335938 754.167969 420.945312 754.15625 421.550781 754.113281 C 422.15625 754.074219 422.761719 754 423.359375 753.898438 C 423.960938 753.796875 424.554688 753.667969 425.140625 753.507812 C 425.726562 753.347656 426.304688 753.160156 426.875 752.945312 C 427.441406 752.730469 428 752.484375 428.542969 752.214844 C 429.085938 751.941406 429.617188 751.644531 430.132812 751.324219 C 430.648438 751 431.144531 750.652344 431.628906 750.28125 C 432.109375 749.90625 432.570312 749.511719 433.011719 749.09375 C 433.453125 748.675781 433.875 748.238281 434.273438 747.78125 C 434.675781 747.320312 435.050781 746.84375 435.402344 746.347656 C 435.753906 745.851562 436.082031 745.339844 436.382812 744.8125 C 436.6875 744.285156 436.960938 743.742188 437.210938 743.1875 C 437.460938 742.632812 437.679688 742.066406 437.875 741.488281 C 438.066406 740.914062 438.230469 740.328125 438.367188 739.734375 C 438.503906 739.140625 438.609375 738.542969 438.6875 737.941406 C 438.761719 737.335938 438.8125 736.730469 438.828125 736.121094 C 438.847656 735.515625 438.832031 734.90625 438.792969 734.300781 L 435.851562 691.933594 C 478.335938 726.644531 529.6875 753.660156 584.222656 769.589844 C 655.878906 790.519531 729.449219 791.023438 791.390625 771.011719 C 798.210938 768.820312 804.929688 766.5 811.550781 764.058594 C 844.433594 752.160156 875.589844 736.757812 905.011719 717.859375 C 938.816406 695.925781 967.914062 669.972656 991.628906 640.71875 C 1003.589844 625.972656 1014.179688 610.300781 1023.394531 593.699219 C 1032.613281 577.101562 1040.320312 559.828125 1046.519531 541.878906 C 1059.097656 505.351562 1065.46875 465.925781 1065.304688 424.738281 C 1065.125 397.195312 1062.398438 369.90625 1057.117188 342.875 C 1057.003906 342.277344 1056.859375 341.6875 1056.6875 341.105469 C 1056.511719 340.519531 1056.3125 339.949219 1056.082031 339.382812 C 1055.851562 338.820312 1055.597656 338.269531 1055.3125 337.734375 C 1055.03125 337.195312 1054.722656 336.671875 1054.386719 336.164062 C 1054.050781 335.65625 1053.695312 335.167969 1053.3125 334.695312 C 1052.929688 334.222656 1052.523438 333.769531 1052.09375 333.335938 C 1051.667969 332.902344 1051.222656 332.492188 1050.753906 332.105469 C 1050.285156 331.714844 1049.800781 331.351562 1049.296875 331.011719 C 1048.792969 330.667969 1048.273438 330.355469 1047.742188 330.0625 C 1047.207031 329.773438 1046.660156 329.511719 1046.097656 329.277344 C 1045.539062 329.039062 1044.96875 328.832031 1044.386719 328.652344 C 1043.808594 328.472656 1043.21875 328.320312 1042.625 328.199219 C 1042.027344 328.074219 1041.425781 327.984375 1040.824219 327.917969 C 1040.21875 327.855469 1039.613281 327.824219 1039.003906 327.820312 C 1038.398438 327.816406 1037.789062 327.839844 1037.183594 327.898438 C 1036.578125 327.953125 1035.976562 328.039062 1035.382812 328.152344 Z M 1035.382812 328.152344 " fill-opacity="1" fill-rule="nonzero"/></g><path fill="#1dd3b0" d="M 948.25 62.8125 C 947.644531 62.859375 947.039062 62.9375 946.441406 63.042969 C 945.84375 63.148438 945.25 63.285156 944.664062 63.449219 C 944.082031 63.613281 943.503906 63.808594 942.9375 64.027344 C 942.371094 64.25 941.816406 64.496094 941.273438 64.773438 C 940.734375 65.050781 940.207031 65.351562 939.695312 65.679688 C 939.179688 66.007812 938.6875 66.359375 938.207031 66.734375 C 937.730469 67.109375 937.273438 67.507812 936.832031 67.929688 C 936.394531 68.351562 935.976562 68.792969 935.582031 69.253906 C 935.1875 69.71875 934.816406 70.199219 934.46875 70.699219 C 934.121094 71.195312 933.796875 71.710938 933.5 72.242188 C 933.203125 72.773438 932.933594 73.316406 932.6875 73.871094 C 932.445312 74.429688 932.226562 74.996094 932.039062 75.578125 C 931.851562 76.15625 931.691406 76.742188 931.5625 77.335938 C 931.429688 77.929688 931.328125 78.527344 931.257812 79.132812 C 931.183594 79.738281 931.144531 80.34375 931.132812 80.949219 C 931.117188 81.558594 931.136719 82.167969 931.183594 82.773438 L 934.113281 120.363281 C 920.15625 107.539062 905.3125 95.839844 889.582031 85.269531 C 873.855469 74.695312 857.417969 65.367188 840.277344 57.285156 C 828.023438 51.507812 815.476562 46.457031 802.640625 42.128906 C 795.238281 39.621094 787.753906 37.375 780.191406 35.386719 C 772.632812 33.402344 765.011719 31.6875 757.328125 30.238281 C 749.644531 28.789062 741.921875 27.609375 734.15625 26.699219 C 726.394531 25.792969 718.605469 25.160156 710.796875 24.796875 C 702.988281 24.4375 695.175781 24.347656 687.359375 24.535156 C 679.546875 24.722656 671.746094 25.183594 663.964844 25.917969 C 656.179688 26.652344 648.433594 27.660156 640.722656 28.9375 C 633.007812 30.214844 625.351562 31.761719 617.746094 33.578125 C 589.921875 40.140625 562.839844 48.96875 536.492188 60.070312 C 458.671875 93.203125 401.144531 154.402344 365.507812 242.019531 C 336.046875 314.433594 322.199219 405.457031 325.601562 505.257812 C 325.621094 505.867188 325.671875 506.472656 325.753906 507.074219 C 325.832031 507.675781 325.941406 508.273438 326.082031 508.863281 C 326.21875 509.457031 326.386719 510.039062 326.582031 510.617188 C 326.777344 511.191406 327.003906 511.757812 327.253906 512.308594 C 327.503906 512.863281 327.785156 513.402344 328.085938 513.929688 C 328.390625 514.453125 328.722656 514.964844 329.074219 515.457031 C 329.429688 515.953125 329.808594 516.429688 330.210938 516.882812 C 330.609375 517.339844 331.03125 517.777344 331.476562 518.191406 C 331.921875 518.605469 332.382812 519 332.867188 519.371094 C 333.347656 519.738281 333.847656 520.085938 334.363281 520.40625 C 334.878906 520.726562 335.410156 521.019531 335.957031 521.289062 C 336.5 521.558594 337.058594 521.796875 337.628906 522.011719 C 338.195312 522.226562 338.773438 522.410156 339.363281 522.566406 C 339.949219 522.722656 340.542969 522.851562 341.140625 522.949219 C 341.742188 523.050781 342.34375 523.117188 342.949219 523.15625 C 343.558594 523.195312 344.164062 523.207031 344.769531 523.1875 C 346.757812 523.128906 348.683594 522.753906 350.546875 522.0625 C 351.457031 521.726562 352.335938 521.324219 353.183594 520.851562 C 354.03125 520.378906 354.839844 519.84375 355.601562 519.242188 C 356.367188 518.644531 357.078125 517.988281 357.742188 517.277344 C 358.402344 516.570312 359.003906 515.808594 359.546875 515.003906 C 360.089844 514.199219 360.5625 513.355469 360.972656 512.476562 C 361.386719 511.597656 361.722656 510.691406 361.992188 509.757812 C 362.261719 508.824219 362.453125 507.875 362.574219 506.910156 C 362.691406 505.949219 362.734375 504.980469 362.703125 504.011719 C 359.515625 409.386719 372.375 323.636719 399.886719 256.019531 C 431.695312 177.828125 482.554688 123.394531 551.042969 94.234375 C 575.484375 83.949219 600.609375 75.765625 626.417969 69.683594 C 639.957031 66.453125 653.65625 64.1875 667.515625 62.882812 C 681.371094 61.582031 695.253906 61.253906 709.15625 61.902344 C 723.0625 62.550781 736.851562 64.167969 750.527344 66.753906 C 764.203125 69.339844 777.632812 72.871094 790.8125 77.347656 C 802.304688 81.214844 813.53125 85.734375 824.492188 90.910156 C 842.074219 99.214844 858.820312 108.957031 874.734375 120.136719 C 890.644531 131.316406 905.488281 143.769531 919.265625 157.496094 L 919.808594 158.042969 L 861.222656 167.6875 C 860.617188 167.78125 860.019531 167.90625 859.425781 168.058594 C 858.835938 168.210938 858.25 168.394531 857.679688 168.605469 C 857.105469 168.816406 856.542969 169.054688 855.992188 169.320312 C 855.441406 169.585938 854.90625 169.878906 854.382812 170.199219 C 853.863281 170.515625 853.355469 170.863281 852.871094 171.230469 C 852.382812 171.601562 851.914062 171.992188 851.464844 172.40625 C 851.015625 172.824219 850.589844 173.257812 850.183594 173.71875 C 849.777344 174.175781 849.394531 174.652344 849.039062 175.148438 C 848.679688 175.640625 848.34375 176.152344 848.039062 176.683594 C 847.730469 177.210938 847.449219 177.753906 847.195312 178.308594 C 846.9375 178.863281 846.710938 179.433594 846.515625 180.011719 C 846.316406 180.589844 846.148438 181.175781 846.007812 181.773438 C 845.867188 182.367188 845.753906 182.96875 845.675781 183.574219 C 845.59375 184.179688 845.542969 184.789062 845.519531 185.398438 C 845.5 186.011719 845.507812 186.621094 845.546875 187.234375 C 845.589844 187.84375 845.65625 188.449219 845.757812 189.054688 C 845.855469 189.65625 845.984375 190.253906 846.144531 190.84375 C 846.300781 191.4375 846.488281 192.015625 846.703125 192.589844 C 846.921875 193.160156 847.164062 193.722656 847.433594 194.269531 C 847.707031 194.816406 848.003906 195.351562 848.328125 195.871094 C 848.652344 196.390625 849 196.890625 849.375 197.375 C 849.746094 197.859375 850.144531 198.324219 850.5625 198.769531 C 850.980469 199.214844 851.421875 199.636719 851.882812 200.039062 C 852.34375 200.441406 852.824219 200.820312 853.320312 201.171875 C 853.820312 201.527344 854.335938 201.855469 854.867188 202.160156 C 855.398438 202.464844 855.941406 202.738281 856.5 202.988281 C 857.058594 203.238281 857.628906 203.460938 858.207031 203.652344 C 858.789062 203.847656 859.375 204.011719 859.972656 204.144531 C 860.566406 204.28125 861.167969 204.386719 861.777344 204.460938 C 862.382812 204.535156 862.992188 204.582031 863.601562 204.597656 C 864.214844 204.613281 864.824219 204.597656 865.433594 204.554688 C 866.042969 204.507812 866.652344 204.433594 867.253906 204.328125 L 959.664062 189.113281 L 959.933594 189.050781 L 960.964844 188.84375 L 961.714844 188.648438 C 962.027344 188.566406 962.324219 188.472656 962.625 188.371094 C 962.921875 188.269531 962.941406 188.277344 963.097656 188.214844 C 963.253906 188.152344 963.34375 188.113281 963.46875 188.0625 L 964.109375 187.804688 L 965.140625 187.328125 L 965.644531 187.0625 C 966.121094 186.804688 966.582031 186.523438 967.027344 186.234375 L 967.097656 186.183594 C 967.585938 185.863281 968.058594 185.519531 968.511719 185.152344 L 968.605469 185.082031 C 968.6875 185.019531 968.757812 184.9375 968.839844 184.863281 C 969.160156 184.585938 969.46875 184.296875 969.78125 183.996094 L 970.210938 183.554688 C 970.460938 183.300781 970.699219 183.03125 970.925781 182.75 L 971.355469 182.234375 C 971.605469 181.914062 971.832031 181.59375 972.046875 181.261719 C 972.265625 180.933594 972.410156 180.726562 972.574219 180.449219 C 972.738281 180.171875 972.945312 179.828125 973.121094 179.511719 L 973.429688 178.878906 C 973.574219 178.582031 973.707031 178.28125 973.832031 177.972656 C 973.957031 177.664062 973.996094 177.570312 974.078125 177.363281 C 974.164062 177.15625 974.328125 176.683594 974.429688 176.332031 C 974.480469 176.15625 974.542969 175.980469 974.59375 175.796875 C 974.707031 175.382812 974.800781 174.972656 974.894531 174.546875 C 974.894531 174.425781 974.894531 174.300781 974.964844 174.175781 C 975.175781 173.070312 975.277344 171.953125 975.277344 170.824219 C 975.277344 170.628906 975.277344 170.433594 975.277344 170.226562 C 975.277344 170.019531 975.277344 169.667969 975.277344 169.378906 L 968.316406 79.914062 C 968.269531 79.304688 968.195312 78.699219 968.085938 78.097656 C 967.980469 77.496094 967.847656 76.898438 967.683594 76.3125 C 967.515625 75.722656 967.324219 75.144531 967.101562 74.574219 C 966.878906 74.003906 966.628906 73.445312 966.351562 72.902344 C 966.078125 72.355469 965.773438 71.824219 965.445312 71.3125 C 965.113281 70.796875 964.761719 70.296875 964.382812 69.816406 C 964.003906 69.335938 963.601562 68.878906 963.179688 68.4375 C 962.753906 67.996094 962.308594 67.578125 961.84375 67.179688 C 961.378906 66.785156 960.894531 66.410156 960.394531 66.0625 C 959.890625 65.714844 959.375 65.390625 958.839844 65.09375 C 958.304688 64.796875 957.757812 64.527344 957.199219 64.28125 C 956.636719 64.039062 956.066406 63.824219 955.484375 63.636719 C 954.902344 63.449219 954.3125 63.292969 953.714844 63.164062 C 953.117188 63.035156 952.515625 62.933594 951.90625 62.867188 C 951.300781 62.796875 950.691406 62.757812 950.078125 62.75 C 949.46875 62.738281 948.859375 62.761719 948.25 62.8125 Z M 948.25 62.8125 " fill-opacity="1" fill-rule="nonzero"/><path fill="#14c664" d="M 888.535156 365.289062 L 831.75 344.84375 C 841.597656 437.683594 843.855469 535.792969 841.03125 637.5 C 746.785156 650.023438 655.074219 647.382812 553.433594 643.351562 C 550.597656 627.011719 548.875 603.296875 548.082031 575.269531 C 546.265625 511.3125 549.308594 424.828125 554.910156 352.34375 L 500.402344 370.042969 C 482.46875 341.851562 468.210938 310.101562 456.804688 275.578125 C 488.542969 255.753906 521.382812 237.964844 555.320312 222.207031 L 615.179688 209.425781 C 646.96875 257.246094 722.417969 258.289062 763.570312 209.425781 L 782.8125 213.921875 L 828.132812 224.546875 C 864.027344 237.132812 899.144531 251.574219 933.605469 267.613281 Z M 888.535156 365.289062 " fill-opacity="1" fill-rule="nonzero"/><path fill="#fffdbd" d="M 770.6875 421.703125 C 770.339844 421.160156 769.945312 420.652344 769.5 420.1875 C 769.054688 419.71875 768.566406 419.300781 768.039062 418.929688 C 767.511719 418.558594 766.949219 418.242188 766.359375 417.980469 C 765.769531 417.71875 765.160156 417.519531 764.53125 417.375 C 763.902344 417.234375 763.261719 417.15625 762.617188 417.140625 C 761.972656 417.125 761.332031 417.175781 760.695312 417.285156 C 760.058594 417.394531 759.441406 417.566406 758.839844 417.800781 C 758.238281 418.03125 757.664062 418.320312 757.117188 418.667969 C 756.574219 419.011719 756.066406 419.40625 755.597656 419.851562 C 755.132812 420.296875 754.710938 420.785156 754.339844 421.3125 C 753.96875 421.839844 753.652344 422.398438 753.390625 422.988281 C 753.128906 423.578125 752.925781 424.1875 752.785156 424.820312 C 752.640625 425.449219 752.5625 426.085938 752.546875 426.730469 C 752.53125 427.378906 752.578125 428.019531 752.6875 428.65625 C 752.796875 429.289062 752.96875 429.910156 753.199219 430.511719 C 753.429688 431.117188 753.71875 431.691406 754.0625 432.234375 C 765.664062 450.546875 765.40625 459.191406 763.644531 461.210938 C 759.570312 465.882812 746.019531 467.8125 732.203125 468.988281 C 733.542969 467.378906 734.988281 465.78125 736.410156 464.347656 C 736.84375 463.886719 737.226562 463.386719 737.566406 462.851562 C 737.902344 462.3125 738.183594 461.75 738.410156 461.160156 C 738.640625 460.570312 738.808594 459.960938 738.917969 459.339844 C 739.03125 458.714844 739.078125 458.085938 739.070312 457.453125 C 739.058594 456.820312 738.988281 456.195312 738.855469 455.574219 C 738.726562 454.953125 738.535156 454.355469 738.289062 453.769531 C 738.039062 453.1875 737.738281 452.632812 737.386719 452.109375 C 737.03125 451.585938 736.628906 451.097656 736.183594 450.652344 C 735.734375 450.203125 735.246094 449.804688 734.722656 449.449219 C 734.195312 449.097656 733.640625 448.796875 733.058594 448.550781 C 732.476562 448.304688 731.875 448.117188 731.253906 447.988281 C 730.636719 447.855469 730.007812 447.785156 729.375 447.777344 C 728.742188 447.769531 728.117188 447.820312 727.492188 447.933594 C 726.871094 448.042969 726.261719 448.214844 725.671875 448.445312 C 725.082031 448.671875 724.519531 448.957031 723.984375 449.292969 C 723.449219 449.632812 722.953125 450.019531 722.492188 450.453125 C 719.515625 453.492188 716.742188 456.707031 714.167969 460.097656 C 707.414062 469.042969 705.003906 476.117188 706.578125 482.285156 C 706.578125 482.421875 706.640625 482.554688 706.683594 482.6875 C 706.722656 482.824219 706.683594 482.6875 706.683594 482.75 C 709.519531 492.519531 723.871094 502.175781 729.90625 505.867188 C 730.457031 506.207031 731.035156 506.488281 731.640625 506.714844 C 732.246094 506.941406 732.871094 507.105469 733.507812 507.207031 C 734.148438 507.3125 734.789062 507.351562 735.4375 507.328125 C 736.085938 507.304688 736.722656 507.214844 737.351562 507.066406 C 737.980469 506.917969 738.589844 506.707031 739.179688 506.4375 C 739.765625 506.167969 740.324219 505.84375 740.847656 505.464844 C 741.371094 505.082031 741.855469 504.65625 742.292969 504.179688 C 742.734375 503.707031 743.125 503.195312 743.460938 502.640625 C 743.800781 502.089844 744.082031 501.511719 744.308594 500.902344 C 744.53125 500.296875 744.695312 499.671875 744.796875 499.035156 C 744.898438 498.394531 744.9375 497.75 744.914062 497.105469 C 744.886719 496.457031 744.800781 495.820312 744.648438 495.1875 C 744.5 494.558594 744.289062 493.949219 744.015625 493.363281 C 743.746094 492.773438 743.421875 492.21875 743.039062 491.695312 C 742.660156 491.171875 742.230469 490.691406 741.757812 490.25 C 741.28125 489.8125 740.769531 489.421875 740.214844 489.082031 L 738.75 488.15625 C 756.085938 486.464844 770.429688 483.390625 778.503906 474.125 C 788.257812 462.933594 785.628906 445.296875 770.6875 421.703125 Z M 770.6875 421.703125 " fill-opacity="1" fill-rule="nonzero"/><path fill="#fffdbd" d="M 677.234375 476.292969 C 667.066406 476.59375 643.019531 476.375 639.347656 468.039062 C 636.542969 461.644531 644.0625 447.535156 649.867188 436.867188 C 650.898438 439.613281 651.929688 442.550781 652.796875 445.398438 C 652.945312 445.90625 653.132812 446.398438 653.359375 446.875 C 653.585938 447.351562 653.851562 447.804688 654.152344 448.238281 C 654.453125 448.675781 654.785156 449.082031 655.152344 449.460938 C 655.519531 449.84375 655.914062 450.191406 656.335938 450.507812 C 656.757812 450.824219 657.203125 451.105469 657.671875 451.351562 C 658.136719 451.59375 658.621094 451.800781 659.125 451.96875 C 659.625 452.136719 660.136719 452.261719 660.65625 452.347656 C 661.175781 452.433594 661.703125 452.472656 662.230469 452.472656 C 663.167969 452.476562 664.085938 452.34375 664.984375 452.070312 C 665.601562 451.890625 666.199219 451.652344 666.773438 451.355469 C 667.34375 451.058594 667.882812 450.707031 668.386719 450.300781 C 668.890625 449.898438 669.351562 449.449219 669.765625 448.953125 C 670.179688 448.460938 670.542969 447.929688 670.851562 447.363281 C 671.164062 446.796875 671.414062 446.207031 671.609375 445.589844 C 671.804688 444.972656 671.933594 444.34375 672.003906 443.703125 C 672.074219 443.058594 672.082031 442.417969 672.023438 441.773438 C 671.964844 441.128906 671.847656 440.5 671.664062 439.878906 C 671.59375 439.632812 669.851562 433.691406 667.199219 427.285156 C 662.929688 416.96875 658.734375 411.171875 653.683594 408.542969 C 653.476562 408.429688 653.257812 408.316406 653.054688 408.222656 L 652.898438 408.160156 L 652.671875 408.160156 C 645.679688 405.066406 636.285156 405.726562 623.976562 410.039062 C 618.871094 411.847656 613.910156 413.992188 609.09375 416.472656 C 608.523438 416.777344 607.992188 417.136719 607.492188 417.546875 C 606.992188 417.957031 606.535156 418.410156 606.125 418.910156 C 605.714844 419.410156 605.359375 419.945312 605.054688 420.515625 C 604.75 421.085938 604.503906 421.679688 604.316406 422.300781 C 604.128906 422.917969 604 423.550781 603.9375 424.195312 C 603.875 424.835938 603.875 425.480469 603.9375 426.125 C 604 426.769531 604.128906 427.398438 604.316406 428.019531 C 604.503906 428.636719 604.75 429.230469 605.054688 429.800781 C 605.359375 430.371094 605.714844 430.90625 606.125 431.40625 C 606.535156 431.90625 606.988281 432.363281 607.488281 432.773438 C 607.988281 433.183594 608.523438 433.539062 609.09375 433.84375 C 609.664062 434.148438 610.257812 434.394531 610.878906 434.582031 C 611.496094 434.769531 612.125 434.898438 612.769531 434.960938 C 613.414062 435.023438 614.054688 435.023438 614.699219 434.960938 C 615.34375 434.898438 615.972656 434.769531 616.59375 434.582031 C 617.210938 434.394531 617.804688 434.148438 618.375 433.84375 C 622.378906 431.792969 626.503906 430.023438 630.75 428.53125 C 631.359375 428.316406 631.925781 428.128906 632.492188 427.953125 C 623.996094 443.550781 614.859375 461.046875 621.429688 476.046875 C 625.078125 484.359375 632.769531 490.144531 644.175781 493.25 C 651.464844 495.230469 660.496094 496.203125 671.65625 496.203125 C 673.664062 496.203125 675.746094 496.171875 677.902344 496.109375 C 678.550781 496.089844 679.1875 496.007812 679.816406 495.863281 C 680.445312 495.71875 681.054688 495.515625 681.640625 495.25 C 682.230469 494.984375 682.789062 494.664062 683.316406 494.292969 C 683.839844 493.917969 684.324219 493.496094 684.769531 493.023438 C 685.210938 492.554688 685.601562 492.046875 685.945312 491.5 C 686.289062 490.953125 686.574219 490.375 686.804688 489.773438 C 687.035156 489.167969 687.203125 488.550781 687.308594 487.914062 C 687.417969 487.277344 687.460938 486.632812 687.441406 485.988281 C 687.421875 485.34375 687.339844 484.707031 687.195312 484.078125 C 687.050781 483.449219 686.847656 482.839844 686.582031 482.25 C 686.320312 481.660156 686 481.101562 685.625 480.578125 C 685.25 480.050781 684.828125 479.566406 684.359375 479.121094 C 683.890625 478.679688 683.382812 478.285156 682.835938 477.945312 C 682.289062 477.601562 681.710938 477.316406 681.109375 477.085938 C 680.503906 476.855469 679.886719 476.6875 679.25 476.578125 C 678.613281 476.472656 677.972656 476.429688 677.328125 476.449219 Z M 677.234375 476.292969 " fill-opacity="1" fill-rule="nonzero"/><path fill="#fffdbd" d="M 706.175781 392.6875 C 706.09375 393.328125 706.074219 393.96875 706.117188 394.613281 C 706.160156 395.257812 706.265625 395.890625 706.433594 396.515625 C 706.601562 397.140625 706.828125 397.742188 707.113281 398.320312 C 707.402344 398.898438 707.742188 399.445312 708.132812 399.957031 C 708.527344 400.46875 708.96875 400.9375 709.453125 401.359375 C 709.9375 401.785156 710.460938 402.160156 711.019531 402.484375 C 711.578125 402.804688 712.164062 403.070312 712.777344 403.277344 C 713.386719 403.484375 714.011719 403.628906 714.652344 403.714844 C 719.070312 404.242188 723.507812 404.550781 727.957031 404.632812 L 729.316406 404.632812 C 739.8125 404.632812 746.464844 402.898438 750.640625 399.082031 L 750.804688 398.925781 L 751.136719 398.628906 L 751.28125 398.472656 L 751.484375 398.246094 C 755.207031 394.265625 757.527344 387.550781 759.179688 375.957031 C 760.210938 368.734375 760.558594 362.195312 760.582031 361.917969 C 760.628906 361.261719 760.609375 360.613281 760.527344 359.964844 C 760.445312 359.3125 760.300781 358.679688 760.089844 358.058594 C 759.882812 357.441406 759.613281 356.847656 759.285156 356.28125 C 758.957031 355.714844 758.578125 355.183594 758.144531 354.695312 C 757.710938 354.203125 757.234375 353.761719 756.714844 353.363281 C 756.191406 352.96875 755.636719 352.628906 755.050781 352.34375 C 754.460938 352.058594 753.847656 351.835938 753.214844 351.671875 C 752.582031 351.511719 751.9375 351.414062 751.285156 351.378906 C 750.632812 351.34375 749.980469 351.375 749.335938 351.46875 C 748.6875 351.566406 748.054688 351.722656 747.441406 351.945312 C 746.824219 352.167969 746.238281 352.445312 745.675781 352.785156 C 745.117188 353.125 744.597656 353.515625 744.117188 353.957031 C 743.632812 354.398438 743.199219 354.886719 742.816406 355.414062 C 742.429688 355.945312 742.101562 356.507812 741.828125 357.101562 C 741.554688 357.695312 741.34375 358.3125 741.195312 358.949219 C 741.042969 359.585938 740.957031 360.230469 740.9375 360.882812 C 740.78125 363.980469 740.484375 367.207031 740.101562 370.273438 C 736.523438 365.96875 732.535156 361.503906 728.410156 357.4375 C 716.652344 345.867188 707.300781 341.070312 698.96875 342.316406 C 686.597656 344.164062 672.625 355.972656 657.320312 377.390625 C 656.949219 377.914062 656.628906 378.472656 656.363281 379.0625 C 656.097656 379.648438 655.890625 380.257812 655.746094 380.886719 C 655.601562 381.515625 655.519531 382.152344 655.5 382.796875 C 655.480469 383.445312 655.523438 384.085938 655.628906 384.722656 C 655.738281 385.359375 655.902344 385.976562 656.132812 386.582031 C 656.359375 387.1875 656.644531 387.761719 656.988281 388.308594 C 657.328125 388.855469 657.722656 389.367188 658.164062 389.835938 C 658.605469 390.304688 659.089844 390.730469 659.613281 391.105469 C 660.140625 391.480469 660.695312 391.800781 661.285156 392.066406 C 661.871094 392.328125 662.480469 392.535156 663.109375 392.679688 C 663.738281 392.828125 664.375 392.910156 665.019531 392.929688 C 665.664062 392.949219 666.304688 392.90625 666.941406 392.800781 C 667.578125 392.695312 668.199219 392.527344 668.804688 392.300781 C 669.40625 392.070312 669.980469 391.785156 670.53125 391.445312 C 671.078125 391.101562 671.585938 390.710938 672.058594 390.269531 C 672.527344 389.828125 672.949219 389.34375 673.324219 388.820312 C 689.824219 365.679688 699.25 362.296875 701.597656 361.8125 C 702.414062 362.007812 706.753906 363.433594 716.035156 372.820312 C 719.429688 376.265625 723.066406 380.378906 726.75 384.910156 C 723.65625 384.828125 720.335938 384.589844 717.210938 384.1875 C 716.570312 384.101562 715.925781 384.082031 715.28125 384.125 C 714.636719 384.167969 714 384.269531 713.375 384.4375 C 712.75 384.605469 712.148438 384.835938 711.566406 385.121094 C 710.988281 385.410156 710.441406 385.75 709.929688 386.144531 C 709.417969 386.539062 708.949219 386.980469 708.523438 387.46875 C 708.097656 387.957031 707.722656 388.480469 707.402344 389.042969 C 707.078125 389.601562 706.816406 390.191406 706.609375 390.804688 C 706.402344 391.417969 706.257812 392.042969 706.175781 392.6875 Z M 706.175781 392.6875 " fill-opacity="1" fill-rule="nonzero"/><g clip-path="url(#c49e965a84)"><g clip-path="url(#580edc6c58)"><path fill="#000000" d="M 548.082031 213.878906 L 548.082031 650.023438 L 933.605469 650.023438 L 933.605469 213.878906 Z M 548.082031 213.878906 " fill-opacity="1" fill-rule="nonzero"/></g></g></svg>